# Blender v2.75 (sub 0) OBJ File: 'House.blend'
# www.blender.org
mtllib House.mtl
o Cube_Cube.001
v -1.000000 0.168973 0.202940
v -1.000000 -0.020333 1.000000
v -1.000000 1.197941 1.000000
v -1.000000 1.197941 -1.000000
v -1.000000 0.712873 -0.830199
v -1.000000 0.712873 0.202940
v -0.942163 0.712873 0.202788
v -0.942163 0.168973 0.202788
v -1.000000 0.168973 -0.830199
v -1.000000 -0.020333 -1.000000
v -0.528866 0.712873 1.000000
v 0.504270 0.712873 1.000000
v 1.000000 1.197941 1.000000
v -0.528866 0.168973 1.000000
v -1.090831 1.191859 1.090831
v -1.090831 1.191859 -1.090831
v -0.944880 0.712873 -0.830344
v -0.944880 0.168973 -0.830344
v -0.528866 0.712873 -1.000000
v -0.528866 0.168973 -1.000000
v 1.000000 1.197941 -1.000000
v 0.504270 0.712873 -1.000000
v 1.000000 -0.020333 -1.000000
v 1.000000 -0.020333 0.426782
v 0.967666 -0.020333 0.426782
v 0.967666 -0.020333 0.881148
v 1.000000 -0.020333 0.881148
v 1.000000 -0.020333 1.000000
v -0.528866 0.168973 0.948006
v -0.528866 0.712873 0.948006
v 0.504270 0.712873 0.948006
v 0.504270 0.168973 1.000000
v 1.090831 1.191859 1.090831
v 1.090831 1.191859 -1.090831
v -1.090831 1.337935 1.090831
v -1.090831 1.337935 -1.090831
v 0.504270 0.712873 -0.970755
v -0.528866 0.712873 -0.970755
v -0.528866 0.168973 -0.970755
v 0.504270 0.168973 -1.000000
v 1.000000 0.712873 -0.825340
v 1.000000 0.168973 -0.825340
v 1.000000 0.168973 0.207796
v 0.967666 0.667083 0.426782
v 1.000000 0.667083 0.426782
v 0.967666 0.667083 0.881148
v 1.000000 0.667083 0.881148
v 1.000000 0.712873 0.207796
v 0.504270 0.168973 0.948006
v 1.090831 1.337935 1.090831
v 1.090831 1.337935 -1.090831
v -0.784606 1.337935 0.784606
v -0.784606 1.337935 -0.784606
v 0.784606 1.337935 -0.784606
v 0.504270 0.168973 -0.970755
v 0.957432 0.712873 -0.825340
v 0.957432 0.168973 -0.825340
v 0.957432 0.168973 0.207796
v 0.957432 0.712873 0.207796
v 0.784606 1.337935 0.784606
v -0.784606 1.469051 0.645819
v -0.784606 1.469051 0.101768
v -0.784606 1.469051 -0.068721
v -0.784606 1.469051 -0.612773
v -0.784606 1.755468 -0.612773
v -0.784606 1.856411 -0.784606
v -0.592205 1.469051 -0.784606
v -0.048154 1.469051 -0.784606
v 0.122335 1.469051 -0.784606
v 0.666386 1.469051 -0.784606
v 0.666386 1.755469 -0.784606
v 0.784606 1.856411 -0.784606
v 0.784606 1.469051 0.646711
v 0.784606 1.755468 -0.611880
v 0.784606 1.469051 -0.611880
v 0.784606 1.469051 -0.067829
v 0.784606 1.469051 0.102660
v -0.593154 1.469051 0.784606
v 0.784606 1.856411 0.784606
v 0.665437 1.755469 0.784606
v 0.665437 1.469051 0.784606
v 0.121386 1.469051 0.784606
v -0.049103 1.469051 0.784606
v -0.784606 1.856411 0.784606
v -0.784606 1.856411 0.000000
v -0.784606 1.755468 -0.068721
v -0.784606 1.755469 0.101768
v -0.784606 1.755469 0.645819
v -0.740146 1.469051 0.645702
v -0.741576 1.469051 0.101654
v -0.740146 1.469051 -0.068838
v -0.741576 1.469051 -0.612886
v -0.741576 1.755468 -0.612886
v 0.000000 1.856411 -0.784606
v 0.122335 1.755468 -0.784606
v -0.048154 1.755469 -0.784606
v -0.592205 1.755469 -0.784606
v -0.592106 1.469051 -0.746985
v -0.048059 1.469051 -0.748416
v 0.122434 1.469051 -0.746985
v 0.666481 1.469051 -0.748416
v 0.666481 1.755469 -0.748416
v 0.741473 1.469051 0.102774
v 0.742903 1.469051 0.646821
v 0.784606 1.755469 0.646711
v 0.784606 1.755469 0.102660
v 0.784606 1.755468 -0.067829
v 0.784606 1.856411 0.000000
v 0.741473 1.755468 -0.611767
v 0.741473 1.469051 -0.611767
v 0.742903 1.469051 -0.067719
v -0.049178 1.469051 0.756116
v -0.593225 1.469051 0.757547
v -0.593154 1.755469 0.784606
v -0.049103 1.755469 0.784606
v 0.121386 1.755469 0.784606
v 0.000000 1.856411 0.784606
v 0.665362 1.755469 0.756116
v 0.665362 1.469051 0.756116
v 0.121315 1.469051 0.757546
v -0.855872 1.851639 0.855872
v -0.855872 1.851639 0.000000
v -0.855872 1.851639 -0.855872
v -0.740146 1.755468 -0.068838
v -0.741576 1.755469 0.101654
v -0.740146 1.755469 0.645702
v 0.000000 1.851639 -0.855872
v 0.855872 1.851639 -0.855872
v 0.122434 1.755468 -0.746985
v -0.048059 1.755469 -0.748416
v -0.592106 1.755469 -0.746985
v 0.742903 1.755469 0.646821
v 0.741473 1.755469 0.102774
v 0.742903 1.755468 -0.067719
v 0.855872 1.851639 0.000000
v 0.855872 1.851639 0.855872
v -0.593225 1.755469 0.757547
v -0.049178 1.755469 0.756116
v 0.121315 1.755469 0.757546
v 0.000000 1.851639 0.855872
v -0.855872 1.966252 0.855872
v -0.855872 1.966252 0.000000
v -0.855872 1.966252 -0.855872
v 0.000000 1.966252 -0.855872
v 0.855872 1.966252 -0.855872
v 0.855872 1.966252 0.000000
v 0.855872 1.966252 0.855872
v 0.000000 1.966252 0.855872
v 0.000000 2.463226 0.000000
v -0.469032 2.190876 -0.469032
v -0.505430 2.169741 -0.469032
v -0.485470 2.181331 -0.485470
v -0.489809 2.178812 -0.489809
v -0.637070 2.093302 -0.489809
v -0.637070 2.093302 -0.637070
v -0.637070 2.041633 -0.726054
v -0.400825 2.041633 -0.726054
v -0.400825 2.178812 -0.489809
v -0.396486 2.181331 -0.485470
v -0.380048 2.169741 -0.505430
v -0.380048 2.190876 -0.469032
v -0.618046 2.104349 -0.618046
v -0.508833 2.167765 -0.508833
v -0.419849 2.167765 -0.508833
v -0.419849 2.065784 -0.684461
v -0.618046 2.065784 -0.684461
v -0.618046 2.104349 -0.508833
v -0.637070 2.184390 -0.489809
v -0.637070 2.184390 -0.726054
v -0.400825 2.184390 -0.489809
v -0.657847 2.169741 -0.469032
v -0.657847 2.169741 -0.746831
v -0.400825 2.184390 -0.726054
v -0.380048 2.169741 -0.746831
v -0.657847 2.365607 -0.469032
v -0.657847 2.365607 -0.746831
v -0.380048 2.365607 -0.469032
v -0.380048 2.365607 -0.746831
v -0.618046 2.365607 -0.508833
v -0.618046 2.365607 -0.707030
v -0.419849 2.365607 -0.508833
v -0.419849 2.365607 -0.707030
v -0.618046 2.065784 -0.707030
v -0.419849 2.065784 -0.707030
vt 0.063465 0.987192
vt 0.107335 0.961864
vt 0.107335 0.911207
vt 0.063465 0.885878
vt 0.019595 0.911207
vt 0.019595 0.961864
vt 0.012808 0.885878
vt 0.114122 0.885878
vt 0.114122 0.987192
vt 0.012808 0.987192
vt 0.961434 0.914308
vt 0.976125 0.914308
vt 0.976125 0.928999
vt 0.961434 0.928999
vt 0.945885 0.107539
vt 0.966870 0.107539
vt 0.966870 0.128524
vt 0.945885 0.128524
vt 0.099285 0.972355
vt 0.114122 0.936535
vt 0.099285 0.900715
vt 0.027645 0.900715
vt 0.012808 0.936535
vt 0.027645 0.972355
vt 0.030223 0.062468
vt 0.047100 0.062468
vt 0.047100 0.079344
vt 0.030223 0.079344
vt 0.093240 0.977518
vt 0.111642 0.952189
vt 0.111642 0.920881
vt 0.093240 0.895553
vt 0.033689 0.895553
vt 0.015287 0.920881
vt 0.015287 0.952189
vt 0.033689 0.977518
vt 0.968779 0.928999
vt 0.975141 0.925326
vt 0.975141 0.917981
vt 0.968779 0.914308
vt 0.962418 0.917981
vt 0.962418 0.925326
vt 0.102441 0.964853
vt 0.015287 0.936535
vt 0.968779 0.921653
vt 0.972805 0.925679
vt 0.972805 0.925991
vt 0.972946 0.925820
vt 0.972983 0.925857
vt 0.972983 0.927121
vt 0.974247 0.927121
vt 0.976125 0.921653
vt 0.975011 0.927121
vt 0.975011 0.925093
vt 0.972983 0.925093
vt 0.972946 0.925056
vt 0.973117 0.924915
vt 0.972805 0.924915
vt 0.961434 0.921653
vt 0.974084 0.926958
vt 0.973146 0.926020
vt 0.973146 0.925257
vt 0.974654 0.925257
vt 0.974654 0.926958
vt 0.973146 0.926958
vt 0.084588 0.936888
vt 0.099352 0.934757
vt 0.109771 0.941879
vt 0.097017 0.945695
vt 0.077729 0.942985
vt 0.087219 0.923950
vt 0.086038 0.928950
vt 0.086577 0.923615
vt 0.087006 0.934603
vt 0.097875 0.933685
vt 0.099132 0.923724
vt 0.109771 0.914139
vt 0.087404 0.924181
vt 0.086616 0.928059
vt 0.086806 0.928578
vt 0.097638 0.924554
vt 0.090882 0.929698
vt 0.093112 0.929971
vt 0.088223 0.923633
vt 0.087130 0.927893
vt 0.088273 0.924818
vt 0.091070 0.927610
vt 0.093617 0.927855
vt 0.091157 0.929542
vt 0.092823 0.929644
vt 0.091383 0.927972
vt 0.093127 0.928111
vt 0.091965 0.928703
vt 0.091945 0.928702
vn -1.000000 0.000000 0.000000
vn -0.002600 0.000000 -1.000000
vn 0.000000 0.000000 1.000000
vn 0.066800 -0.997800 0.000000
vn 0.000000 -1.000000 0.000000
vn 0.000000 1.000000 -0.000000
vn -1.000000 0.000000 0.002600
vn 0.002600 0.000000 1.000000
vn 0.000000 0.000000 -1.000000
vn 1.000000 0.000000 0.000000
vn 0.000000 -0.997800 -0.066800
vn 0.000000 -0.997800 0.066800
vn -0.066800 -0.997800 0.000000
vn 1.000000 0.000000 -0.002600
vn -0.502100 0.864800 0.000000
vn 0.000000 0.864800 -0.502100
vn 0.502100 0.864800 0.000000
vn 0.000000 0.864800 0.502100
vn 0.576200 -0.817300 0.000000
vn -0.000000 -0.817300 -0.576200
vn 0.000000 -0.817300 0.576200
vn -0.576200 -0.817300 0.000000
usemtl Material.001
s off
f 1/1/1 2/2/1 3/3/1 4/4/1 5/5/1 6/6/1
f 1/7/2 6/8/2 7/9/2 8/10/2
f 1/1/1 9/2/1 5/3/1 4/4/1 10/5/1 2/6/1
f 11/1/3 12/2/3 13/3/3 3/4/3 2/5/3 14/6/3
f 4/11/4 3/12/4 15/13/4 16/14/4
f 6/7/5 5/8/5 17/9/5 7/10/5
f 9/7/6 1/8/6 8/9/6 18/10/6
f 17/15/7 18/16/7 8/17/7 7/18/7
f 5/7/8 9/8/8 18/9/8 17/10/8
f 19/1/9 20/2/9 10/3/9 4/4/9 21/5/9 22/6/9
f 2/1/5 10/19/5 23/20/5 24/21/5 25/4/5 26/22/5 27/23/5 28/24/5
f 11/7/10 14/8/10 29/9/10 30/10/10
f 12/7/5 11/8/5 30/9/5 31/10/5
f 14/1/3 2/2/3 28/3/3 13/4/3 12/5/3 32/6/3
f 3/11/11 13/12/11 33/13/11 15/14/11
f 21/11/12 4/12/12 16/13/12 34/14/12
f 16/11/1 15/12/1 35/13/1 36/14/1
f 19/7/5 22/8/5 37/9/5 38/10/5
f 20/7/10 19/8/10 38/9/10 39/10/10
f 20/1/9 40/2/9 22/3/9 21/4/9 23/5/9 10/6/9
f 21/1/10 41/2/10 42/3/10 43/4/10 24/5/10 23/6/10
f 44/7/3 25/8/3 24/9/3 45/10/3
f 26/25/10 25/26/10 44/27/10 46/28/10
f 47/7/9 27/8/9 26/9/9 46/10/9
f 13/1/10 28/29/10 27/30/10 47/31/10 45/32/10 24/4/10 43/33/10 48/34/10 41/35/10 21/36/10
f 14/7/6 32/8/6 49/9/6 29/10/6
f 30/15/3 29/16/3 49/17/3 31/18/3
f 32/7/1 12/8/1 31/9/1 49/10/1
f 13/11/13 21/12/13 34/13/13 33/14/13
f 15/11/3 33/12/3 50/13/3 35/14/3
f 34/11/9 16/12/9 36/13/9 51/14/9
f 35/37/6 52/38/6 53/39/6 54/40/6 51/41/6 36/42/6
f 22/7/1 40/8/1 55/9/1 37/10/1
f 37/15/9 55/16/9 39/17/9 38/18/9
f 40/7/6 20/8/6 39/9/6 55/10/6
f 42/7/3 41/8/3 56/9/3 57/10/3
f 43/7/6 42/8/6 57/9/6 58/10/6
f 45/7/5 47/8/5 46/9/5 44/10/5
f 48/7/9 43/8/9 58/9/9 59/10/9
f 41/7/5 48/8/5 59/9/5 56/10/5
f 33/11/10 34/12/10 51/13/10 50/14/10
f 35/37/6 50/38/6 51/39/6 54/40/6 60/41/6 52/42/6
f 52/1/1 61/19/1 62/20/1 63/21/1 64/4/1 65/22/1 66/23/1 53/24/1
f 53/1/9 67/19/9 68/20/9 69/21/9 70/4/9 71/22/9 72/23/9 54/24/9
f 59/15/10 58/16/10 57/17/10 56/18/10
f 73/1/10 60/19/10 54/20/10 72/21/10 74/4/10 75/22/10 76/23/10 77/24/10
f 78/1/3 52/19/3 60/20/3 79/21/3 80/4/3 81/22/3 82/23/3 83/24/3
f 52/1/1 84/29/1 85/43/1 66/30/1 65/31/1 86/32/1 63/4/1 62/33/1 87/34/1 88/35/1 61/36/1
f 62/7/6 61/8/6 89/9/6 90/10/6
f 64/7/6 63/8/6 91/9/6 92/10/6
f 65/7/8 64/8/8 92/9/8 93/10/8
f 53/1/9 66/29/9 94/43/9 72/30/9 71/31/9 95/32/9 69/4/9 68/33/9 96/34/9 97/35/9 67/36/9
f 68/7/6 67/8/6 98/9/6 99/10/6
f 70/7/6 69/8/6 100/9/6 101/10/6
f 71/7/7 70/8/7 101/9/7 102/10/7
f 73/7/6 77/8/6 103/9/6 104/10/6
f 73/1/10 105/29/10 106/30/10 77/31/10 76/32/10 107/4/10 74/33/10 72/34/10 108/44/10 79/35/10 60/36/10
f 75/7/8 74/8/8 109/9/8 110/10/8
f 76/7/6 75/8/6 110/9/6 111/10/6
f 78/7/6 83/8/6 112/9/6 113/10/6
f 78/1/3 114/29/3 115/30/3 83/31/3 82/32/3 116/4/3 80/33/3 79/34/3 117/44/3 84/35/3 52/36/3
f 81/7/7 80/8/7 118/9/7 119/10/7
f 82/7/6 81/8/6 119/9/6 120/10/6
f 85/40/4 84/12/4 121/13/4 122/37/4
f 66/11/4 85/40/4 122/37/4 123/14/4
f 86/7/5 65/8/5 93/9/5 124/10/5
f 63/7/2 86/8/2 124/9/2 91/10/2
f 87/7/8 62/8/8 90/9/8 125/10/8
f 88/7/5 87/8/5 125/9/5 126/10/5
f 61/7/2 88/8/2 126/9/2 89/10/2
f 125/15/7 90/16/7 89/17/7 126/18/7
f 93/15/7 92/16/7 91/17/7 124/18/7
f 94/40/12 66/12/12 123/13/12 127/37/12
f 72/11/12 94/40/12 127/37/12 128/14/12
f 95/7/5 71/8/5 102/9/5 129/10/5
f 69/7/14 95/8/14 129/9/14 100/10/14
f 96/7/7 68/8/7 99/9/7 130/10/7
f 97/7/5 96/8/5 130/9/5 131/10/5
f 67/7/14 97/8/14 131/9/14 98/10/14
f 130/15/2 99/16/2 98/17/2 131/18/2
f 102/15/2 101/16/2 100/17/2 129/18/2
f 105/7/2 73/8/2 104/9/2 132/10/2
f 77/7/8 106/8/8 133/9/8 103/10/8
f 132/15/14 104/16/14 103/17/14 133/18/14
f 106/7/5 105/8/5 132/9/5 133/10/5
f 107/7/2 76/8/2 111/9/2 134/10/2
f 74/7/5 107/8/5 134/9/5 109/10/5
f 108/40/13 72/12/13 128/13/13 135/37/13
f 79/11/13 108/40/13 135/37/13 136/14/13
f 134/15/14 111/16/14 110/17/14 109/18/14
f 114/7/14 78/8/14 113/9/14 137/10/14
f 83/7/7 115/8/7 138/9/7 112/10/7
f 137/15/8 113/16/8 112/17/8 138/18/8
f 115/7/5 114/8/5 137/9/5 138/10/5
f 116/7/14 82/8/14 120/9/14 139/10/14
f 80/7/5 116/8/5 139/9/5 118/10/5
f 117/40/11 79/12/11 136/13/11 140/37/11
f 84/11/11 117/40/11 140/37/11 121/14/11
f 139/15/8 120/16/8 119/17/8 118/18/8
f 122/40/1 121/12/1 141/13/1 142/37/1
f 123/11/1 122/40/1 142/37/1 143/14/1
f 127/40/9 123/12/9 143/13/9 144/37/9
f 128/11/9 127/40/9 144/37/9 145/14/9
f 135/40/10 128/12/10 145/13/10 146/37/10
f 136/11/10 135/40/10 146/37/10 147/14/10
f 140/40/3 136/12/3 147/13/3 148/37/3
f 121/11/3 140/40/3 148/37/3 141/14/3
f 149/45/15 142/37/15 141/14/15
f 142/37/15 149/45/15 150/46/15 151/47/15 152/48/15 153/49/15 154/50/15 155/51/15 143/13/15
f 149/45/16 144/52/16 143/13/16 155/51/16 156/53/16 157/54/16 158/55/16 153/49/16 152/48/16 159/56/16 160/57/16 161/58/16 150/46/16
f 145/12/16 144/52/16 149/45/16
f 146/40/17 145/12/17 149/45/17
f 147/11/17 146/40/17 149/45/17
f 148/59/18 147/11/18 149/45/18
f 148/59/18 149/45/18 141/14/18
f 162/60/16 163/61/16 164/62/16 165/63/16 166/64/16
f 163/61/15 162/60/15 167/65/15
f 168/66/1 169/67/1 156/68/1 155/69/1 154/70/1
f 170/71/3 168/66/3 154/70/3 153/72/3 158/73/3
f 169/67/19 168/66/19 171/74/19 172/75/19
f 156/68/9 169/67/9 173/76/9 157/77/9
f 157/77/10 173/76/10 170/71/10 158/73/10
f 168/66/20 170/71/20 159/78/20 152/79/20 151/80/20 171/74/20
f 173/76/21 169/67/21 172/75/21 174/81/21
f 172/75/1 171/74/1 175/82/1 176/83/1
f 159/78/22 170/71/22 173/76/22 174/81/22 160/84/22
f 171/74/3 151/80/3 150/85/3 161/86/3 177/87/3 175/82/3
f 174/81/9 172/75/9 176/83/9 178/88/9
f 176/83/6 175/82/6 179/89/6 180/90/6
f 160/84/10 174/81/10 178/88/10 177/87/10 161/86/10
f 175/82/6 177/87/6 181/91/6 179/89/6
f 178/88/6 176/83/6 180/90/6 182/92/6
f 180/90/10 179/89/10 167/93/10 162/93/10 166/93/10 183/94/10
f 177/87/6 178/88/6 182/92/6 181/91/6
f 179/89/9 181/91/9 164/93/9 163/93/9 167/93/9
f 182/92/3 180/90/3 183/94/3 184/93/3
f 165/93/6 184/93/6 183/94/6 166/93/6
f 164/93/1 181/91/1 182/92/1 184/93/1 165/93/1
