<svg xmlns="http://www.w3.org/2000/svg" xmlns:xlink="http://www.w3.org/1999/xlink">
  <defs/>
  <g>
    <path stroke="none" fill="#DBDBDB" d="M210.25 332.3 Q209.9 332.75 209.85 333.25 209.8 334.15 210.55 334.85 211.25 335.55 212.3 335.7 L213.75 335.5 214.2 335.3 214.45 335.1 215 333.9 Q215.05 333.05 214.4 332.3 213.65 331.6 212.55 331.5 L210.85 331.75 210.75 331.85 210.25 332.3 M200.15 358.6 L199.8 358.6 192.7 352.1 192.95 347.4 210.7 329.15 215.15 328.85 224.45 334.75 224.35 335.85 200.15 358.6 M200.45 351 Q200.1 351.4 200.05 351.95 200.05 352.8 200.75 353.55 201.5 354.25 202.55 354.4 L204 354.25 204.45 354 204.7 353.7 Q205.2 353.3 205.2 352.6 205.3 351.75 204.6 351 203.9 350.25 202.8 350.15 201.85 350 201.1 350.45 L200.95 350.55 200.45 351 M210.15 341.15 Q209.8 341.5 209.8 342.1 209.75 342.95 210.45 343.6 211.2 344.35 212.25 344.5 L213.65 344.3 214.1 344.05 214.35 343.85 Q214.9 343.4 214.95 342.7 215 341.85 214.3 341.1 213.6 340.4 212.5 340.25 L210.8 340.55 210.6 340.65 210.15 341.15 M215.2 336.15 Q214.85 336.5 214.8 337.05 214.75 337.95 215.5 338.65 216.25 339.4 217.3 339.5 L218.75 339.35 219.15 339.1 219.45 338.85 Q220 338.45 220 337.7 220.05 336.85 219.4 336.1 218.65 335.4 217.6 335.3 216.6 335.15 215.9 335.6 L215.7 335.65 215.2 336.15 M205.25 346.25 Q204.9 346.7 204.9 347.2 204.85 348.1 205.55 348.75 206.3 349.5 207.35 349.65 L208.75 349.45 209.2 349.2 209.45 349 Q210 348.5 210.05 347.8 210.1 347 209.4 346.25 208.65 345.55 207.6 345.4 206.65 345.3 205.9 345.7 L205.7 345.8 205.25 346.25 M195.5 347.2 Q195.15 347.6 195.1 348.15 195.05 349.05 195.75 349.7 196.5 350.45 197.55 350.6 L199.05 350.4 199.45 350.15 199.75 349.95 200.3 348.8 Q200.3 347.95 199.6 347.2 198.9 346.5 197.8 346.35 196.85 346.25 196.15 346.65 L195.95 346.75 195.5 347.2 M200.3 342.5 Q199.9 342.9 199.9 343.45 199.8 344.25 200.55 344.95 201.3 345.7 202.3 345.85 L203.8 345.65 204.25 345.4 204.5 345.2 Q205.05 344.75 205.1 344.05 205.1 343.2 204.45 342.45 203.7 341.75 202.6 341.6 L200.9 341.9 200.75 342 200.3 342.5 M205.2 337.35 Q204.85 337.75 204.8 338.25 204.75 339.15 205.45 339.85 206.2 340.55 207.25 340.7 L208.7 340.5 209.15 340.3 209.4 340.1 Q209.95 339.6 210 338.85 210 338 209.3 337.35 208.55 336.65 207.5 336.5 L205.85 336.75 205.65 336.9 205.2 337.35"/>
    <path stroke="none" fill="#E26231" d="M205.2 337.35 L205.65 336.9 205.85 336.75 207.5 336.5 Q208.55 336.65 209.3 337.35 210 338 210 338.85 209.95 339.6 209.4 340.1 L209.15 340.3 208.7 340.5 207.25 340.7 Q206.2 340.55 205.45 339.85 204.75 339.15 204.8 338.25 204.85 337.75 205.2 337.35 M210.25 332.3 L210.75 331.85 210.85 331.75 212.55 331.5 Q213.65 331.6 214.4 332.3 215.05 333.05 215 333.9 L214.45 335.1 214.2 335.3 213.75 335.5 212.3 335.7 Q211.25 335.55 210.55 334.85 209.8 334.15 209.85 333.25 209.9 332.75 210.25 332.3 M200.3 342.5 L200.75 342 200.9 341.9 202.6 341.6 Q203.7 341.75 204.45 342.45 205.1 343.2 205.1 344.05 205.05 344.75 204.5 345.2 L204.25 345.4 203.8 345.65 202.3 345.85 Q201.3 345.7 200.55 344.95 199.8 344.25 199.9 343.45 199.9 342.9 200.3 342.5 M195.5 347.2 L195.95 346.75 196.15 346.65 Q196.85 346.25 197.8 346.35 198.9 346.5 199.6 347.2 200.3 347.95 200.3 348.8 L199.75 349.95 199.45 350.15 199.05 350.4 197.55 350.6 Q196.5 350.45 195.75 349.7 195.05 349.05 195.1 348.15 195.15 347.6 195.5 347.2 M205.25 346.25 L205.7 345.8 205.9 345.7 Q206.65 345.3 207.6 345.4 208.65 345.55 209.4 346.25 210.1 347 210.05 347.8 210 348.5 209.45 349 L209.2 349.2 208.75 349.45 207.35 349.65 Q206.3 349.5 205.55 348.75 204.85 348.1 204.9 347.2 204.9 346.7 205.25 346.25 M215.2 336.15 L215.7 335.65 215.9 335.6 Q216.6 335.15 217.6 335.3 218.65 335.4 219.4 336.1 220.05 336.85 220 337.7 220 338.45 219.45 338.85 L219.15 339.1 218.75 339.35 217.3 339.5 Q216.25 339.4 215.5 338.65 214.75 337.95 214.8 337.05 214.85 336.5 215.2 336.15 M210.15 341.15 L210.6 340.65 210.8 340.55 212.5 340.25 Q213.6 340.4 214.3 341.1 215 341.85 214.95 342.7 214.9 343.4 214.35 343.85 L214.1 344.05 213.65 344.3 212.25 344.5 Q211.2 344.35 210.45 343.6 209.75 342.95 209.8 342.1 209.8 341.5 210.15 341.15 M200.45 351 L200.95 350.55 201.1 350.45 Q201.85 350 202.8 350.15 203.9 350.25 204.6 351 205.3 351.75 205.2 352.6 205.2 353.3 204.7 353.7 L204.45 354 204 354.25 202.55 354.4 Q201.5 354.25 200.75 353.55 200.05 352.8 200.05 351.95 200.1 351.4 200.45 351"/>
    <path stroke="none" fill="#F3F3F3" d="M200.15 358.6 L224.35 335.85 224.25 337.6 203.35 358.45 200.15 358.6"/>
    <path stroke="none" fill="#EEEEEE" d="M38.45 36.5 L43.6 36.8 45.75 33.7 54.1 33.55 52.65 44.25 46.2 44.35 42.35 41.05 37.85 40.95 38.45 36.5"/>
    <path stroke="none" fill="#D9DBDB" d="M38.45 36.5 L37.85 40.95 33.55 40.85 34.2 36.3 38.45 36.5"/>
    <path stroke="none" fill="#4C94D4" d="M33.55 40.85 L32.25 49.9 28 49.6 18.15 48.9 13.3 48.55 13.65 27.7 35.25 29.25 34.2 36.3 33.55 40.85"/>
    <path stroke="none" fill="#3D4448" d="M28 49.6 L27.35 52.95 18 51.9 18.15 48.9 28 49.6"/>
    <path stroke="none" fill="#4C5154" d="M27.35 52.95 L26.45 57.65 30.7 58.55 29.85 65.7 12.95 63.45 14.9 55.45 17.85 56.1 18 51.9 27.35 52.95"/>
    <path stroke="none" fill="#EEEEEE" d="M235.85 34.55 L243 38.65 247.6 29.65 250.25 30.9 252 45.15 240.35 47.9 228.35 67.65 219.6 68.55 217 60.65 228.6 42.4 225.5 32.8 238.6 24.9 241 26.55 235.85 34.55 M228.6 59.9 L225.35 57.4 222.5 60.65 225.35 63.65 228.6 59.9"/>
    <path stroke="none" fill="#D9DBDB" d="M228.6 59.9 L225.35 63.65 222.5 60.65 225.35 57.4 228.6 59.9"/>
    <path stroke="none" fill="#EEEEEE" d="M272.65 44.8 L278.75 33 276.85 29.15 281.35 20.6 290.8 26.1 286 34.9 282.6 35.2 277.15 46.5 272.65 44.8"/>
    <path stroke="none" fill="#D9DBDB" d="M272.65 44.8 L277.15 46.5 275.3 50.35 270.85 48.4 272.65 44.8"/>
    <path stroke="none" fill="#FFCC00" d="M275.3 50.35 L278.3 51.7 269.55 72.85 258.2 66.2 266.9 46.6 270.85 48.4 275.3 50.35"/>
    <path stroke="none" fill="#E26231" d="M304.85 47.45 L307.95 49.8 311.1 52.25 296.75 67.65 289.5 59.3 301.8 45.05 304.85 47.45"/>
    <path stroke="none" fill="#EEEEEE" d="M309 43.2 L310.25 41.9 317 40.75 314.55 37.85 335.55 25.8 337.55 27.35 325 50.25 319.6 43.85 311.4 45.55 310.5 46.65 309 43.2"/>
    <path stroke="none" fill="#D9DBDB" d="M304.85 47.45 L309 43.2 310.5 46.65 307.95 49.8 304.85 47.45"/>
    <path stroke="none" fill="#EEEEEE" d="M373.1 25.85 L374.5 36.35 367.85 40.1 360.5 56.2 363 62.85 355.75 70.35 354 69.45 356.85 62.1 350.5 59.2 346.85 66.35 344.5 65.1 345.1 54.35 352.25 53.1 358.85 37.1 355.5 30.2 362.75 23.1 364.6 23.7 362.75 29.7 369.1 31.85 370.75 25.35 373.1 25.85"/>
    <path stroke="none" fill="#E26231" d="M403.6 38.3 L406.1 40.55 411.25 45.05 408.75 48.05 397.1 70.5 389.3 72 387.65 65.35 394.35 53.2 399.25 44.2 396.45 37.55 398.6 33.9 403.6 38.3 M392.45 67.65 L395.1 66.15 393.8 63.15 391.1 65 392.45 67.65"/>
    <path stroke="none" fill="#EEEEEE" d="M398.6 33.9 L406.25 21.45 421.4 32.25 418.2 36.05 407.9 29.9 403.6 38.3 398.6 33.9 M406.1 40.55 L408.1 37.25 416.25 42.7 413.05 46.4 411.25 45.05 406.1 40.55 M394.35 53.2 L391.3 50.55 393.45 45.9 391.45 44.4 396.45 37.55 399.25 44.2 394.35 53.2"/>
    <path stroke="none" fill="#D9DBDB" d="M392.45 67.65 L391.1 65 393.8 63.15 395.1 66.15 392.45 67.65"/>
    <path stroke="none" fill="#EEEEEE" d="M486.95 45.45 L491.55 34.05 478.7 28.3 491.25 20.95 508.95 28.55 504.85 40.25 496.1 36.2 492.1 46.8 486.95 45.45"/>
    <path stroke="none" fill="#FFCC00" d="M490.35 51.45 L492.6 52.25 484.7 72.45 474.05 67 481.7 48.2 485.25 49.55 490.35 51.45"/>
    <path stroke="none" fill="#D9DBDB" d="M490.35 51.45 L485.25 49.55 486.95 45.45 492.1 46.8 490.35 51.45"/>
    <path stroke="none" fill="#EEEEEE" d="M740.95 53.95 L742.75 50.6 739.25 45.6 754 14.1 766 19.35 753.5 50.6 748.25 51.6 746.4 55.2 740.95 53.95"/>
    <path stroke="none" fill="#D9DBDB" d="M740.95 53.95 L746.4 55.2 744 59.95 739.3 57 740.95 53.95"/>
    <path stroke="none" fill="#4C94D4" d="M744 59.95 L747 61.85 737 79.35 729 74.35 737.5 55.85 739.3 57 744 59.95"/>
    <path stroke="none" fill="#EEEEEE" d="M772.5 60 L802.55 0 816.25 6.85 810.25 9.7 812 16.9 805.5 21.65 808.85 29.05 802.1 34.15 804.25 42.85 797 47.15 798.9 56.85 791.65 60.15 793.15 72.3 772.5 60"/>
    <path stroke="none" fill="#D9DBDB" d="M772.5 60 L793.15 72.3 791.9 75.85 769.55 65.85 772.5 60"/>
    <path stroke="none" fill="#E26231" d="M791.9 75.85 L778.45 93.4 764.75 87.9 769.55 65.85 791.9 75.85 M777.75 85.9 L783.45 80.2 772.3 74.95 771.15 83.85 777.75 85.9"/>
    <path stroke="none" fill="#EEEEEE" d="M875.5 39.8 L869 36.85 871.7 32.85 877.2 31.2 887.05 35.55 889.35 41.2 886.8 44.9 881.15 42.35 875.5 39.8 M879.5 45.65 L877.75 49.1 875.55 49.1 876.7 51.15 874.5 55.5 872.2 55.5 873.45 57.6 872.2 60 867.9 62.2 865.65 61 865.65 57.05 867.1 54.6 869.65 54.6 868.2 52.65 870.75 48.2 872.95 48.2 871.7 46.5 873.9 42.55 879.5 45.65"/>
    <path stroke="none" fill="#D9DBDB" d="M879.5 45.65 L873.9 42.55 875.5 39.8 881.15 42.35 879.5 45.65"/>
    <path stroke="none" fill="#D9DBDB" d="M889.85 41.8 L888.15 45.2 882.4 42.05 884.05 39.15 889.85 41.8"/>
    <path stroke="none" fill="#EEEEEE" d="M889.85 41.8 L884.05 39.15 877.3 36.1 881.3 29.9 899.15 38.9 895.7 44.45 889.85 41.8 M882.4 42.05 L888.15 45.2 880.6 60.05 873.85 63.5 873.85 57 882.4 42.05"/>
    <path stroke="none" fill="#FFCC00" d="M544.75 46.1 L540.85 52 534.8 53.65 523.8 74.8 517.95 72.4 525.75 50 522.25 45.45 524.95 39.8 544.75 46.1"/>
    <path stroke="none" fill="#EEEEEE" d="M544.75 46.1 L524.95 39.8 527.7 33.2 544.6 38.6 548.6 40 544.75 46.1"/>
    <path stroke="none" fill="#ECDCB6" d="M527.7 33.2 L533.15 18.65 550.75 25.6 544.6 38.6 552.2 26.25 555.1 28.35 548.6 40 544.6 38.6 527.7 33.2"/>
    <path stroke="none" fill="#ECDCB6" d="M707.2 34.15 L705.45 37.7 672 25.45 679.15 10.7 712.35 23.85 709.15 30.35 707.2 34.15"/>
    <path stroke="none" fill="#D9DBDB" d="M691.65 53.5 L690.05 57.8 685.3 56.05 686.9 52.25 687 52.3 691.65 53.5"/>
    <path stroke="none" fill="#EEEEEE" d="M691.65 53.5 L687 52.3 689.75 45.4 708 42.05 711.15 35.75 707.2 34.15 709.15 30.35 717.7 33.85 711.65 46.95 693.05 49.9 691.65 53.5"/>
    <path stroke="none" fill="#4C94D4" d="M690.05 57.8 L692.1 58.55 683.2 82.75 671.3 78.4 682.05 54.8 685.3 56.05 690.05 57.8"/>
    <path stroke="none" fill="#F7F7F7" d="M946.45 17.05 L955 16.2 943.9 49.25 936.9 43.8 946.45 17.05"/>
    <path stroke="none" fill="#EEEEEE" d="M946.45 17.05 L936.9 43.8 931.35 39.45 920.8 36.75 915 35.25 922.7 15 937.8 17.85 946.45 17.05"/>
    <path stroke="none" fill="#D9DBDB" d="M931.35 39.45 L930.3 43.5 919.35 41.05 920.8 36.75 931.35 39.45"/>
    <path stroke="none" fill="#FFCC00" d="M930.3 43.5 L921.25 78.4 908 73.8 919.35 41.05 930.3 43.5"/>
    <path stroke="none" fill="#EEEEEE" d="M441.5 43.55 L446.5 37.95 441.1 28.8 445.2 21.65 451.25 20.95 448 29.5 451.9 35.6 457.6 33.05 459.55 24.1 464.25 28.05 463.75 36.3 455.05 40.5 455.55 47.15 450.15 46.4 449.6 43.15 446.4 45.95 441.5 43.55"/>
    <path stroke="none" fill="#E26231" d="M441.5 43.55 L446.4 45.95 447.55 46.5 435.15 68.5 426.75 64.15 440.15 42.9 441.5 43.55 M455.55 47.15 L457 47.35 456.35 72.45 446.95 71.45 448.85 46.25 450.15 46.4 455.55 47.15"/>
    <path stroke="none" fill="#EEEEEE" d="M609.9 25.45 L609.85 25.4 612.5 21.35 620.85 27.55 617.9 31.7 614.05 28.7 609.9 25.45"/>
    <path stroke="none" fill="#FFCC00" d="M609.9 25.45 L614.05 28.7 604.1 44.5 599.1 42.2 609.9 25.45 M598 54.75 L587.6 72.1 572.65 63.45 582.25 46.85 598 54.75"/>
    <path stroke="none" fill="#4C5154" d="M598 54.75 L582.25 46.85 572.65 63.45 568.2 60.85 568.7 44.45 582.3 34.3 599.1 42.2 604.1 44.5 598 54.75"/>
    <path stroke="none" fill="#EEEEEE" d="M646.8 29.4 L653.05 16.95 657.55 29.8 656.05 32.85 646.8 29.4"/>
    <path stroke="none" fill="#D9DBDB" d="M646.8 29.4 L656.05 32.85 654.5 35.85 645.15 32.75 646.8 29.4"/>
    <path stroke="none" fill="#4C94D4" d="M654.5 35.85 L657.75 36.9 637.6 76.45 623.25 71.85 627.75 56 633.8 53.9 642.05 31.7 645.15 32.75 654.5 35.85 M645 52.5 L640.55 49.05 635.7 59.4 640.45 61.05 645 52.5"/>
    <path stroke="none" fill="#4C5154" d="M645 52.5 L640.45 61.05 635.7 59.4 640.55 49.05 645 52.5"/>
    <path stroke="none" fill="#4C5154" d="M82.05 36.7 L80.95 30 90.85 30 92.1 36 82.05 36.7 M108.2 23.35 L113.95 23.65 119.55 27 119.45 30.4 119.25 36.3 119.15 39.15 116.05 42.6 108.25 43.15 108.2 23.35 M108.3 50.8 L110.9 50.6 111.6 69.25 100.25 70.05 95.25 51.75 98.9 51.45 108.3 50.8"/>
    <path stroke="none" fill="#D9DBDB" d="M119.45 30.4 L123.45 30.35 123.35 36.25 119.25 36.3 119.45 30.4"/>
    <path stroke="none" fill="#EEEEEE" d="M123.45 30.35 L140 30.05 140.6 36.1 123.35 36.25 123.45 30.35"/>
    <path stroke="none" fill="#4C94D4" d="M108.25 43.15 L108.3 50.8 98.9 51.45 97.7 45.35 79.45 44.1 77.1 56.75 80 60.9 78.85 66.65 60.4 60 70.35 23.35 108.2 23.35 108.25 43.15 M82.05 36.7 L92.1 36 90.85 30 80.95 30 82.05 36.7"/>
    <path stroke="none" fill="#D9DBDB" d="M856.2 19.7 L856.25 19.7 849.9 22.55 850.65 30.65 850.65 30.7 845.1 32.7 845 41.75 838.25 45.75 838.2 55 831.7 58.75 831.9 65.1 826.95 62.85 850.15 17.5 856.2 19.7"/>
    <path stroke="none" fill="#EEEEEE" d="M856.2 19.7 L850.15 17.5 844.65 15.25 Q837.75 12.5 835.55 18 L822.35 51.3 817.95 49.35 832.35 14.45 Q835.3 6.25 845 10.15 L858.05 15.1 856.2 19.7"/>
    <path stroke="none" fill="#E26231" d="M831.9 65.1 L836.15 67 832.4 71.9 819.05 66.85 815.4 75 826.7 79.35 822.7 84.55 809 79.05 815.55 48.3 817.95 49.35 822.35 51.3 825.6 52.75 822 60.65 826.95 62.85 831.9 65.1"/>
    <path stroke="none" fill="#EEEEEE" d="M204.9 22.45 L212.25 19.4 192.7 55.6 192 49.1 204.9 22.45 M185.45 45.45 L183.5 49.65 167.85 41.55 171.75 34.15 180.05 36 182.85 29.1 175.05 27.85 176.35 25.45 187.05 19.95 197.1 24.5 185.35 45.4 185.45 45.45"/>
    <path stroke="none" fill="#666666" d="M185.45 45.45 L185.35 45.4 197.1 24.5 199.3 20.55 204.9 22.45 192 49.1 185.45 45.45 M171.75 34.15 L160.5 31.7 161.25 25.85 175.05 27.85 182.85 29.1 180.05 36 171.75 34.15"/>
    <path stroke="none" fill="#FFCC00" d="M183.5 49.65 L177.65 58.25 168.9 55.9 164 63.25 167.5 70.5 163.65 74 152.75 64.5 161.65 42.9 167.85 41.55 183.5 49.65"/>
    <path stroke="none" fill="#4C5154" d="M264.15 188.65 L264.15 186.35 279.15 184.85 277.75 193 264.15 193.3 264.15 192.35 268.85 191.4 268.2 188.25 264.15 188.65 M258.1 202.5 L259.7 202.5 259.85 206.25 260.5 223 260.7 227.55 237.8 228.6 217.15 219.75 218.3 215.15 221.75 201.15 222.9 196.8 234.8 200.25 240.55 201.95 242.7 202.5 253.4 202.5 258.1 202.5 M231.05 208.8 L228.85 217.9 244.1 221.7 245.75 212.7 231.05 208.8"/>
    <path stroke="none" fill="#959FA6" d="M274.3 205.25 L277.4 198.55 286.2 198.55 285.85 202.5 283.95 223.5 283.8 225.3 276.65 225.3 272.9 222.2 273.4 222.2 274.3 205.25"/>
    <path stroke="none" fill="#899298" d="M274.3 205.25 L273.4 222.2 272.9 222.2 265.95 222.65 264.55 205.95 274.3 205.25 M264.15 192.35 L257.45 193.65 257.9 199.8 253 200.5 252.05 194.9 245.75 194.9 242.45 199.45 237 196.5 240.35 190.9 240.4 190.75 264.15 188.65 268.2 188.25 268.85 191.4 264.15 192.35 M233.1 196.35 L223.9 192.5 218.35 195.95 212.45 193.9 213.85 185.7 235.3 189.9 233.1 196.35"/>
    <path stroke="none" fill="#767D83" d="M233.1 196.35 L235.3 189.9 240.35 190.9 237 196.5 242.45 199.45 240.55 201.95 234.8 200.25 236.3 197.7 233.1 196.35 M257.9 199.8 L258.1 202.5 253.4 202.5 253 200.5 257.9 199.8 M259.85 206.25 L264.55 205.95 265.95 222.65 260.5 223 259.85 206.25 M218.3 215.15 L214 213.45 218.7 200.25 221.75 201.15 218.3 215.15"/>
    <path stroke="none" fill="#BFCBD4" d="M285.85 202.5 L286.7 203.85 Q288.55 207.35 288.55 212.15 288.55 217 286.7 220.45 285.5 222.75 283.95 223.5 L285.85 202.5"/>
    <path stroke="none" fill="#565E62" d="M231.05 208.8 L245.75 212.7 244.1 221.7 228.85 217.9 231.05 208.8"/>
    <path stroke="none" fill="#767D83" d="M346.6 194.75 L345.1 217.15 342.5 217 341.4 195.2 346.6 194.75 M326.5 198.65 L329.5 196.2 332.6 195.95 330.8 215.75 327.7 212.9 326.5 198.65"/>
    <path stroke="none" fill="#4C5154" d="M326.5 198.65 L327.7 212.9 328.3 220 332.25 220.3 332.25 225.6 302.7 226.5 301.75 221.2 305.05 217.85 307.2 199.8 308.15 191.8 315.4 191.8 325.85 191.8 326.5 198.65 M312.55 201.15 L313.2 218.15 320.2 216.9 321.2 198.65 312.55 201.15"/>
    <path stroke="none" fill="#565E62" d="M307.2 199.8 L301.6 195.4 304.65 186.95 315.4 191.8 308.15 191.8 307.2 199.8 M312.55 201.15 L321.2 198.65 320.2 216.9 313.2 218.15 312.55 201.15"/>
    <path stroke="none" fill="#899298" d="M332.6 195.95 L341.4 195.2 342.5 217 331.5 216.35 330.8 215.75 332.6 195.95"/>
    <path stroke="none" fill="#959FA6" d="M346.6 194.75 L346.65 193.6 357.4 189.2 355 221.95 345 218.75 345.1 217.15 346.6 194.75"/>
    <path stroke="none" fill="#899298" d="M188.4 192.95 L194.3 192.25 192.5 211.6 186.85 211.8 188.4 192.95"/>
    <path stroke="none" fill="#4C5154" d="M183.75 211.95 L183.75 215 173.7 215.75 168.8 194.2 154.55 199.8 158.95 216.85 150.4 217.5 146.7 192.55 183.75 189.25 183.75 193.45 183.75 211.95"/>
    <path stroke="none" fill="#767D83" d="M183.75 211.95 L183.75 193.45 188.4 192.95 186.85 211.8 183.75 211.95"/>
    <path stroke="none" fill="#565E62" d="M173.7 215.75 L160.85 224.2 158.95 216.85 154.55 199.8 168.8 194.2 173.7 215.75"/>
    <path stroke="none" fill="#4C5154" d="M31.15 222.3 L31.15 204.25 21.65 203.1 19.8 224.85 14.2 226.1 12.6 200.8 7 196.6 12.1 187.35 18.85 191.05 34.15 192.9 34.35 198.75 34.95 217.55 35.1 221.45 31.15 222.3"/>
    <path stroke="none" fill="#767D83" d="M34.35 198.75 L38.55 194.55 41.35 194.25 42.25 220.85 40.4 221 34.95 217.55 34.35 198.75"/>
    <path stroke="none" fill="#899298" d="M41.35 194.25 L50.4 193.35 52 220.05 42.25 220.85 41.35 194.25"/>
    <path stroke="none" fill="#565E62" d="M31.15 222.3 L19.8 224.85 21.65 203.1 31.15 204.25 31.15 222.3"/>
    <path stroke="none" fill="#ECE1B6" d="M25 113.95 L26.25 112.45 23.25 110.7 22.25 112.7 25 113.95 M17.55 114.35 L18.1 113 19 110.7 23 108.2 27.75 110.45 29 113.95 27.15 118.4 17.55 114.35 M19.2 137.55 L17.25 142.2 12.55 144 8.7 141.85 8 137.7 10.15 132.5 19.2 137.55"/>
    <path stroke="none" fill="#333333" d="M25 113.95 L22.25 112.7 23.25 110.7 26.25 112.45 25 113.95 M12.55 144 L9.25 145.2 8.7 141.85 12.55 144"/>
    <path stroke="none" fill="#FFCC00" d="M17.55 114.35 L27.15 118.4 19.2 137.55 10.15 132.5 17.55 114.35"/>
    <path stroke="none" fill="#4C94D4" d="M35.65 144 L31.8 141.85 31.1 137.7 33.25 132.5 42.3 137.55 40.35 142.2 35.65 144 M39.8 116.4 L42.1 110.7 46.1 108.2 50.85 110.45 52.1 113.95 55.9 116.9 49.45 131.3 47.5 130.15 52.15 119.3 50.35 118.2 48.85 121.85 39.8 116.4"/>
    <path stroke="none" fill="#E5E5E5" d="M39.8 116.4 L48.85 121.85 42.3 137.55 33.25 132.5 39.8 116.4"/>
    <path stroke="none" fill="#333333" d="M35.65 144 L32.35 145.2 31.8 141.85 35.65 144"/>
    <path stroke="none" fill="#4C94D4" d="M72.25 112.7 L75 113.95 76.25 112.45 73.25 110.7 72.25 112.7 M66.5 116.85 L69 110.7 73 108.2 77.75 110.45 79 113.95 76.05 121.15 66.5 116.85 M70.15 135.3 L67.25 142.2 64.85 143.15 58.35 139.65 58 137.7 60.8 130.9 70.15 135.3"/>
    <path stroke="none" fill="#E5E5E5" d="M70.15 135.3 L60.8 130.9 66.5 116.85 76.05 121.15 70.15 135.3 M72.25 112.7 L73.25 110.7 76.25 112.45 75 113.95 72.25 112.7"/>
    <path stroke="none" fill="#333333" d="M64.85 143.15 L59.25 145.2 58.35 139.65 64.85 143.15"/>
    <path stroke="none" fill="#4C5154" d="M105.45 189.95 Q105.45 187.8 103.9 186.25 102.35 184.7 100.2 184.7 98.05 184.7 96.5 186.25 94.95 187.8 94.95 189.95 94.95 192.1 96.5 193.65 98.05 195.2 100.2 195.2 102.35 195.2 103.9 193.65 105.45 192.1 105.45 189.95 M89.95 181.7 L110.65 179.95 109.7 198.9 92.9 200.45 89.95 181.7 M97.4 220.95 L111.45 218.4 110.9 226.15 93.4 228.7 91.15 222.2 97.4 220.95 M117.45 215.95 L123.15 215.95 120.9 229.95 117.6 229.95 117.45 215.95 M90.1 218.4 L68.9 220.95 67.9 215.45 88.65 213.3 90.1 218.4"/>
    <path stroke="none" fill="#565E62" d="M105.45 189.95 Q105.45 192.1 103.9 193.65 102.35 195.2 100.2 195.2 98.05 195.2 96.5 193.65 94.95 192.1 94.95 189.95 94.95 187.8 96.5 186.25 98.05 184.7 100.2 184.7 102.35 184.7 103.9 186.25 105.45 187.8 105.45 189.95 M111.45 218.4 L111.65 215.2 117.4 213.45 117.45 215.95 117.6 229.95 117.65 233.45 110.4 233.45 110.9 226.15 111.45 218.4"/>
    <path stroke="none" fill="#899298" d="M97.4 210.65 L97.4 220.95 91.15 222.2 90.1 218.4 88.65 213.3 88.1 211.4 97.4 210.65 M86.15 185.45 L87.65 196.95 80.4 199.45 78.9 186.95 86.15 185.45"/>
    <path stroke="none" fill="#BFCBD4" d="M86.15 185.45 L78.9 186.95 80.4 199.45 87.65 196.95 86.15 185.45 M109.7 198.9 L109.15 209.7 97.4 210.65 88.1 211.4 77.65 212.2 74.9 182.95 89.95 181.7 92.9 200.45 109.7 198.9"/>
    <path stroke="none" fill="#BFCBD4" d="M383.05 216.65 L406.6 207.05 408.65 185.3 470 182.05 460.75 222.85 404.5 229.1 383.05 216.65 M437.45 196.6 L443.7 195.2 441.85 193.35 437.45 196.6 M433.75 199.55 L432.15 211.1 443.9 210.2 444.2 208.05 440.7 205.55 445.1 201.45 445.55 198.2 433.75 199.55 M405.85 214.55 L406.15 211.65 403.3 212.7 405.85 214.55 M404.9 224.6 L405.65 217.2 400.5 213.8 392.25 216.85 404.9 224.6"/>
    <path stroke="none" fill="#E4F4FF" d="M437.45 196.6 L441.85 193.35 443.7 195.2 437.45 196.6 M433.75 199.55 L445.55 198.2 445.1 201.45 440.7 205.55 444.2 208.05 443.9 210.2 432.15 211.1 433.75 199.55"/>
    <path stroke="none" fill="#A7B2BB" d="M460.75 222.85 L460.4 224.35 404.75 231.35 384.25 219.35 383.05 216.65 404.5 229.1 460.75 222.85"/>
    <path stroke="none" fill="#4C5154" d="M405.85 214.55 L403.3 212.7 406.15 211.65 405.85 214.55 M404.9 224.6 L392.25 216.85 400.5 213.8 405.65 217.2 404.9 224.6"/>
    <path stroke="none" fill="#4C5154" d="M58.8 267.2 L57.85 276.9 67.7 278.3 68.25 268.45 58.8 267.2 M53 289.35 L56.5 257.1 68.8 258.25 69.25 249.6 72.5 249.6 73 258.6 70 290.85 53 289.35"/>
    <path stroke="none" fill="#8FB670" d="M58.8 267.2 L68.25 268.45 67.7 278.3 57.85 276.9 58.8 267.2"/>
    <path stroke="none" fill="#565E62" d="M70 290.85 L59.5 303.85 44 296.6 53 289.35 70 290.85"/>
    <path stroke="none" fill="#4C5154" d="M26.8 286.2 L15.7 284.75 14.75 295.35 26.25 296.85 26.8 286.2 M32.5 253.1 L29.75 300.35 10.5 297.75 13.75 266.1 27.95 266.9 29.25 253.1 32.5 253.1 M27.5 271.1 L17 269.85 15.95 281.65 26.95 282.8 27.5 271.1"/>
    <path stroke="none" fill="#767D83" d="M27.5 271.1 L26.95 282.8 15.95 281.65 17 269.85 27.5 271.1"/>
    <path stroke="none" fill="#565E62" d="M26.8 286.2 L26.25 296.85 14.75 295.35 15.7 284.75 26.8 286.2"/>
    <path stroke="none" fill="#4C5154" d="M111.9 260.7 L97.65 259.2 93.15 288.7 107.9 288.95 111.9 260.7 M116.65 257.2 L110.9 298.45 88.4 294.95 94.15 254.95 116.65 257.2"/>
    <path stroke="none" fill="#E4F4FF" d="M111.9 260.7 L107.9 288.95 93.15 288.7 97.65 259.2 111.9 260.7"/>
    <path stroke="none" fill="#4C5154" d="M157.9 262.95 L141.9 260.45 136.4 284.95 151.9 286.7 157.9 262.95 M162.65 259.7 L152.9 297.2 130.4 292.95 139.4 256.2 162.65 259.7 M140.6 290.75 L146.3 292.2 147.35 288.05 141.5 287.35 140.6 290.75"/>
    <path stroke="none" fill="#E4F4FF" d="M157.9 262.95 L151.9 286.7 136.4 284.95 141.9 260.45 157.9 262.95"/>
    <path stroke="none" fill="#BFCBD4" d="M140.6 290.75 L141.5 287.35 147.35 288.05 146.3 292.2 140.6 290.75"/>
    <path stroke="none" fill="#4C5154" d="M210.4 257.7 L184.4 255.95 180.9 292.2 205.9 292.45 210.4 257.7 M174.9 299.45 L180.9 252.2 216.15 254.2 208.9 301.2 174.9 299.45"/>
    <path stroke="none" fill="#E4F4FF" d="M210.4 257.7 L205.9 292.45 180.9 292.2 184.4 255.95 210.4 257.7"/>
    <path stroke="none" fill="#D9AD00" d="M331.7 144.9 L328.55 109.3 297.95 115.8 296.95 104.7 310 102.2 313.95 108.15 335.65 103.35 331.7 144.9"/>
    <path stroke="none" fill="#FFCC00" d="M331.7 144.9 L297.35 151.2 289.4 117.6 297.95 115.8 328.55 109.3 331.7 144.9"/>
    <path stroke="none" fill="#FFFFFF" d="M120.25 142.85 L99.25 154.6 98.65 150.4 93.25 113.35 114 101.85 138.75 104.1 142.75 142.4 143 145.1 140.95 144.9 135.25 106.85 114.35 104.1 120.25 142.85"/>
    <path stroke="none" fill="#4C94D4" d="M98.65 150.4 L94.5 152.6 87.75 111.85 113.5 98.85 142.5 101.1 145.25 142.85 142.75 142.4 138.75 104.1 114 101.85 93.25 113.35 98.65 150.4"/>
    <path stroke="none" fill="#E5E5E5" d="M140.95 144.9 L120.25 142.85 114.35 104.1 135.25 106.85 140.95 144.9"/>
    <path stroke="none" fill="#FFFFFF" d="M206.2 111.5 L208.45 120.8 190.85 129.45 189.9 122.05 206.2 111.5 M158.8 111.05 L158.8 105.4 185.4 115.65 203 98.35 204.9 103.75 186.35 117.6 158.8 111.05"/>
    <path stroke="none" fill="#E26231" d="M158.8 111.05 L186.35 117.6 204.9 103.75 209.1 100.6 218.4 136.8 190.2 155.05 158.15 148.65 154.65 110.1 158.8 111.05 M206.2 111.5 L189.9 122.05 190.85 129.45 208.45 120.8 206.2 111.5"/>
    <path stroke="none" fill="#FFFFFF" d="M276.75 147.6 L275 154.1 242.75 158.6 240.5 156.35 232.25 103.35 233.8 103 244.15 155.5 276.75 147.6 M243 121.1 L240 111.6 260.75 107.35 263.25 115.6 243 121.1"/>
    <path stroke="none" fill="#FFCC00" d="M243 121.1 L263.25 115.6 260.75 107.35 240 111.6 243 121.1 M233.8 103 L267.25 94.85 276.75 147.6 244.15 155.5 233.8 103"/>
    <path stroke="none" fill="#E5E5E5" d="M362.4 100.85 L362.4 98.7 369.4 99.3 370.4 95.7 378.9 95.7 378.85 100.1 386.4 100.7 385.75 102.9 385.15 104.95 362.4 103.7 362.4 100.85 M355.3 147.15 L355.9 143.2 381.85 146.2 381.4 151.2 355.3 147.15 M382.8 134.35 L382.3 140.5 356.8 136.95 357.75 130.4 382.8 134.35 M383.7 123.8 L383.35 127.7 358.75 123.5 359.3 119.6 383.7 123.8 M384.65 111.95 L384.25 116.85 360.2 113.35 360.9 108.2 384.65 111.95"/>
    <path stroke="none" fill="#FFFFFF" d="M384.65 111.95 L360.9 108.2 360.2 113.35 384.25 116.85 384.65 111.95 M385.75 102.9 L392.15 103.45 386.15 157.7 348.9 152.2 355.15 100.2 362.4 100.85 362.4 103.7 385.15 104.95 385.75 102.9 M383.7 123.8 L359.3 119.6 358.75 123.5 383.35 127.7 383.7 123.8 M382.8 134.35 L357.75 130.4 356.8 136.95 382.3 140.5 382.8 134.35 M355.3 147.15 L381.4 151.2 381.85 146.2 355.9 143.2 355.3 147.15"/>
    <path stroke="none" fill="#ECDCB6" d="M418.1 100.85 L418.1 103.7 440.85 104.95 441.45 102.9 447.85 103.45 441.85 157.7 433.15 156.45 443.95 108.45 412.65 105.75 408.7 118.2 410.85 100.2 418.1 100.85 M404.9 150 L418.1 154.2 404.6 152.2 404.9 150"/>
    <path stroke="none" fill="#FFFFFF" d="M404.9 150 L399.2 148.2 408.7 118.2 412.65 105.75 443.95 108.45 433.15 156.45 418.1 154.2 404.9 150"/>
    <path stroke="none" fill="#E5E5E5" d="M441.45 102.9 L440.85 104.95 418.1 103.7 418.1 100.85 418.1 98.7 425.1 99.3 426.1 95.7 434.6 95.7 434.55 100.1 442.1 100.7 441.45 102.9"/>
    <path stroke="none" fill="#4C5154" d="M697.85 173.15 L699.9 174.5 696.9 219.95 694.6 222.25 697.85 173.15 M677.45 221.55 L678.5 226.15 678.9 228 666 228 665.65 226.15 664.5 221.05 677.45 221.55"/>
    <path stroke="none" fill="#6C7377" d="M694.6 222.25 L677.45 221.55 664.5 221.05 643.15 220.2 646.15 173.15 697.85 173.15 694.6 222.25 M678.5 226.15 L687.7 226.15 682.4 240.25 676.75 239.35 678.45 233.55 661.4 232.4 659.65 236.75 654 235.85 657.95 226.15 665.65 226.15 666 228 678.9 228 678.5 226.15 M650.1 179.1 L648.25 216.25 689.75 216.5 691.85 179.1 650.1 179.1"/>
    <path stroke="none" fill="#FFFFFF" d="M650.1 179.1 L691.85 179.1 689.75 216.5 648.25 216.25 650.1 179.1"/>
    <path stroke="none" fill="#4C5154" d="M744.5 204.85 L745.35 175.8 758.75 181.1 756.45 229.55 Q750 233.25 743.5 236.9 L744.5 204.85 M717.9 183.15 L718.35 185.25 737.75 186.4 737.75 184.1 717.9 183.15 M714.9 189.4 L714.9 179.7 741.9 180.15 740.75 190.55 714.9 189.4"/>
    <path stroke="none" fill="#6C7377" d="M714.9 189.4 L740.75 190.55 741.9 180.15 714.9 179.7 714.9 189.4 M745.35 175.8 L744.5 204.85 Q728.05 213.35 711.1 214.65 L712.4 174.65 745.35 175.8 M717.9 183.15 L737.75 184.1 737.75 186.4 718.35 185.25 717.9 183.15 M733.85 215.25 L738.65 215.25 738.65 221.7 733.6 223.05 733.85 215.25"/>
    <path stroke="none" fill="#828A8E" d="M733.85 215.25 L733.6 223.05 738.65 221.7 738.65 215.25 733.85 215.25 M744.5 204.85 L743.5 236.9 710.3 238.75 711.1 214.65 Q728.05 213.35 744.5 204.85"/>
    <path stroke="none" fill="#F7E7BF" d="M808.4 238.2 L777.05 240.35 775.65 174.45 810.65 173.1 808.4 238.2 M778.95 188.6 L780.15 206.7 806.15 205.1 806.15 187.35 806.15 176.95 778.3 178.7 778.95 188.6 M780.05 217.1 L780.05 226.45 785.65 226.1 785.65 216.1 780.05 217.1"/>
    <path stroke="none" fill="#ECDCB6" d="M780.05 217.1 L785.65 216.1 785.65 226.1 780.05 226.45 780.05 217.1 M810.65 173.1 L823.4 180.85 820.9 228.35 808.4 238.2 810.65 173.1 M780.4 181.85 L804.55 180.35 804.55 183.35 780.4 184.35 780.4 181.85 M806.15 187.35 L806.15 205.1 780.15 206.7 778.95 188.6 806.15 187.35 M782.3 200.45 L782.55 203.45 794.05 201.6 794.05 198.85 782.3 200.45"/>
    <path stroke="none" fill="#CDC09F" d="M782.3 200.45 L794.05 198.85 794.05 201.6 782.55 203.45 782.3 200.45 M780.4 181.85 L780.4 184.35 804.55 183.35 804.55 180.35 780.4 181.85 M778.95 188.6 L778.3 178.7 806.15 176.95 806.15 187.35 778.95 188.6"/>
    <path stroke="none" fill="#F7E7BF" d="M865 198.1 L866.95 185.45 844.35 186.15 838.8 197.55 865 198.1 M879.3 185.05 L868.95 185.35 867.95 190.8 877.95 190.95 879.3 185.05 M867.7 192.6 L866.6 198.15 876.35 198.35 877.5 193.05 867.7 192.6 M880.85 185 L878.35 198.4 885.8 198.55 888.95 184.7 880.85 185 M904.3 181.75 L896.5 201.7 833.6 199.85 842.7 183.85 904.3 181.75"/>
    <path stroke="none" fill="#D9CAA7" d="M904.3 181.75 L909.4 190.7 896.5 201.7 904.3 181.75 M880.85 185 L888.95 184.7 885.8 198.55 878.35 198.4 880.85 185 M867.7 192.6 L877.5 193.05 876.35 198.35 866.6 198.15 867.7 192.6 M879.3 185.05 L877.95 190.95 867.95 190.8 868.95 185.35 879.3 185.05 M865 198.1 L838.8 197.55 844.35 186.15 866.95 185.45 865 198.1"/>
    <path stroke="none" fill="#4C5154" d="M879.1 215.2 L877.75 221.1 867.75 220.95 868.75 215.5 879.1 215.2 M867.5 222.75 L877.3 223.2 876.15 228.5 866.4 228.3 867.5 222.75 M880.65 215.15 L888.75 214.85 885.6 228.7 878.15 228.55 880.65 215.15 M894.35 211.9 L897.6 216.85 888.95 231.5 894.35 211.9 M864.8 228.25 L838.6 227.7 844.15 216.3 866.75 215.6 864.8 228.25"/>
    <path stroke="none" fill="#6C7377" d="M864.8 228.25 L866.75 215.6 844.15 216.3 838.6 227.7 864.8 228.25 M880.65 215.15 L878.15 228.55 885.6 228.7 888.75 214.85 880.65 215.15 M867.5 222.75 L866.4 228.3 876.15 228.5 877.3 223.2 867.5 222.75 M879.1 215.2 L868.75 215.5 867.75 220.95 877.75 221.1 879.1 215.2 M888.95 231.5 L833.4 230 842.5 214 894.35 211.9 888.95 231.5"/>
    <path stroke="none" fill="#6C7377" d="M913.1 214.4 Q918.05 217.4 920.2 220.8 L922.4 218.75 923.85 220.15 915.1 233.05 Q904.1 223.15 901.2 230.15 905.7 214.8 913.1 214.4"/>
    <path stroke="none" fill="#4C5154" d="M913.1 214.4 Q917.3 214.15 922.4 218.75 L920.2 220.8 Q918.05 217.4 913.1 214.4"/>
    <path stroke="none" fill="#858E93" d="M901.2 230.15 Q904.1 223.15 915.1 233.05 L901.2 230.15"/>
    <path stroke="none" fill="#D9CAA7" d="M937.75 186.45 L939 191.45 929 202.2 929.15 194.45 937.75 186.45 M927.7 183.9 L936 186 932.65 189.2 923.9 187.3 927.7 183.9"/>
    <path stroke="none" fill="#F7E7BF" d="M937.75 186.45 L929.15 194.45 929 202.2 914 200.7 917.25 190.2 925 183.2 927.7 183.9 923.9 187.3 932.65 189.2 936 186 937.75 186.45"/>
    <path stroke="none" fill="#FFFFFF" d="M965 205.75 L959.3 199.95 955.2 203.75 951.25 185.65 968.4 192.05 963.5 196.15 969.75 201.55 965 205.75"/>
    <path stroke="none" fill="#E5E5E5" d="M987.45 188.85 L985.35 194.75 989.25 199.9 987.3 200.1 984.55 196.9 983.05 200.55 980.9 200.75 983.8 194.55 979.15 189.55 987.45 188.85"/>
    <path stroke="none" fill="#FFFFFF" d="M987.45 188.85 L979.15 189.55 977 189.75 975.9 184.65 989.5 184.4 989 188.7 987.45 188.85 M989.25 199.9 L991.1 199.7 990.65 203.9 979.75 205 978.65 201 980.9 200.75 983.05 200.55 987.3 200.1 989.25 199.9"/>
    <path stroke="none" fill="#6C7377" d="M983.05 200.55 L984.55 196.9 987.3 200.1 983.05 200.55"/>
    <path stroke="none" fill="#FFFFFF" d="M1015.65 190.2 L1022.1 193.75 1016.6 198.25 1016.2 195.35 1010.65 195.45 1011 201.15 1013.95 200.65 1010.8 207.2 1005.95 201.95 1008.85 201.5 1008.4 195.5 1002.2 195.65 1002.55 198.35 996.95 194.85 1001.45 190.7 1001.85 193.25 1008.2 193.25 1007.75 187.5 1005.05 188.1 1008.2 182.2 1012.6 186.5 1010.05 187.05 1010.5 193.15 1015.95 193.15 1015.65 190.2"/>
    <path stroke="none" fill="#E4F4FF" d="M287.3 271.55 L289.65 257.85 309.25 260.75 307 274.7 287.3 271.55"/>
    <path stroke="none" fill="#4C5154" d="M287.3 271.55 L307 274.7 309.25 260.75 289.65 257.85 287.3 271.55 M279 292.85 L286.1 253.8 314 257.85 307.65 297.2 Q288.9 303.65 279 292.85 M286.5 274.55 L284.1 285.55 288.35 286.55 287.4 291.3 300.45 294.15 301.55 289.7 304.4 290.35 306.5 278 286.5 274.55"/>
    <path stroke="none" fill="#767D83" d="M286.5 274.55 L306.5 278 304.4 290.35 301.55 289.7 300.45 294.15 287.4 291.3 288.35 286.55 284.1 285.55 286.5 274.55"/>
    <path stroke="none" fill="#4C5154" d="M225.45 267.75 L229.4 265.95 237.55 283.1 236.2 287.45 231.75 284.6 225.45 267.75"/>
    <path stroke="none" fill="#4C5154" d="M249.2 290.25 L252.2 295 257.2 291.75 249.2 290.25 M244.7 254.65 L270.95 256.65 266.2 294.9 251.8 298.8 240.1 290.25 244.7 254.65 M249.05 258.3 L245.25 286.3 263.9 289.7 267.25 259.8 249.05 258.3"/>
    <path stroke="none" fill="#565E62" d="M249.2 290.25 L257.2 291.75 252.2 295 249.2 290.25"/>
    <path stroke="none" fill="#8FB670" d="M249.05 258.3 L267.25 259.8 263.9 289.7 245.25 286.3 249.05 258.3"/>
    <path stroke="none" fill="#ECDCB6" d="M629.7 223.25 L627.95 227.95 609.05 236.8 571.3 230.75 569.95 226.25 608.7 234.1 629.7 223.25 M580.8 223.65 L580.35 221.8 604.05 222.45 604.8 219.55 611.25 220 611.2 222.7 614.7 222.8 618.85 175.05 631.55 182.2 631.1 187.25 629.25 209.9 628.75 215.2 622.05 218.85 619 220.5 618.4 226.7 581.25 225.55 580.8 223.65"/>
    <path stroke="none" fill="#F7E7BF" d="M580.8 223.65 L581.25 225.55 618.4 226.7 619 220.5 622.05 218.85 629.7 223.25 608.7 234.1 569.95 226.25 580.8 223.65 M580.35 221.8 L567.9 221.4 571.55 172.95 618.85 175.05 614.7 222.8 611.2 222.7 611.25 220 604.8 219.55 604.05 222.45 580.35 221.8 M631.1 187.25 L635.25 190.5 633.15 208.95 629.25 209.9 631.1 187.25 M575.7 178.05 L572.95 216.35 611.25 218.2 614.45 178.95 575.7 178.05"/>
    <path stroke="none" fill="#4C94D4" d="M575.7 178.05 L614.45 178.95 611.25 218.2 572.95 216.35 575.7 178.05"/>
    <path stroke="none" fill="#BFCBD4" d="M498.45 209.05 L501.9 174.3 551.55 172.95 546.5 208.1 498.45 209.05 M481.75 224.75 L498.3 210.25 545.9 212.05 528.3 237.1 481.75 224.75 M501.9 205.05 L542.75 204.55 546.5 178.2 504.75 179.1 501.9 205.05 M515.7 223.45 L522.2 224.3 524.25 218.9 518.75 218.25 515.7 223.45 M500.1 213.1 L498.8 214.35 534.9 218.5 537.25 215.3 500.1 213.1 M526.5 219.2 L521.85 229.45 526.05 230.4 533.75 220 526.5 219.2 M497.15 215.8 L489.95 222.2 510.95 227 517.1 218.1 497.15 215.8 M520.4 229.1 L521.7 225.75 515.15 224.35 513.25 227.5 520.4 229.1"/>
    <path stroke="none" fill="#E4F4FF" d="M501.9 205.05 L504.75 179.1 546.5 178.2 542.75 204.55 501.9 205.05"/>
    <path stroke="none" fill="#A7B2BB" d="M551.55 172.95 L552.95 175 547.05 212.8 528.95 240.5 483.45 227.65 481.75 224.75 528.3 237.1 545.9 212.05 546.5 208.1 551.55 172.95"/>
    <path stroke="none" fill="#959FA6" d="M498.3 210.25 L498.45 209.05 546.5 208.1 545.9 212.05 498.3 210.25"/>
    <path stroke="none" fill="#4C5154" d="M515.7 223.45 L518.75 218.25 524.25 218.9 522.2 224.3 515.7 223.45 M500.1 213.1 L537.25 215.3 534.9 218.5 498.8 214.35 500.1 213.1 M526.5 219.2 L533.75 220 526.05 230.4 521.85 229.45 526.5 219.2 M520.4 229.1 L513.25 227.5 515.15 224.35 521.7 225.75 520.4 229.1 M497.15 215.8 L517.1 218.1 510.95 227 489.95 222.2 497.15 215.8"/>
    <path stroke="none" fill="#7DBF49" d="M460.25 265.7 L453.85 268.8 456.9 276.7 464.65 272.5 460.25 265.7 M439.55 294.15 L436.8 295.7 426.8 279.25 469.05 257.75 471 260.45 473.6 259.25 482.2 270 479.3 271.65 476.75 268.15 449.05 284.65 445.7 286.65 437.6 291.45 439.55 294.15 M442.65 274.25 L446.6 282.25 453.95 278.3 450.75 270.3 442.65 274.25 M432 279.4 L438.8 286.45 444.75 283.25 440.45 275.3 432 279.4"/>
    <path stroke="none" fill="#FFCC00" d="M479.3 271.65 L451 287.65 449.05 284.65 476.75 268.15 479.3 271.65 M445.7 286.65 L447.5 289.65 439.55 294.15 437.6 291.45 445.7 286.65"/>
    <path stroke="none" fill="#4C5154" d="M460.25 265.7 L464.65 272.5 456.9 276.7 453.85 268.8 460.25 265.7 M432 279.4 L440.45 275.3 444.75 283.25 438.8 286.45 432 279.4 M442.65 274.25 L450.75 270.3 453.95 278.3 446.6 282.25 442.65 274.25"/>
    <path stroke="none" fill="#4C5154" d="M536.1 269.25 Q536.1 266.1 533.85 263.85 531.65 261.65 528.55 261.65 525.4 261.65 523.15 263.85 520.95 266.1 520.95 269.25 520.95 272.35 523.15 274.55 525.4 276.8 528.55 276.8 531.65 276.8 533.85 274.55 536.1 272.35 536.1 269.25 M498.95 263.95 L540.75 257.15 544 277.35 501.9 282.55 498.95 263.95"/>
    <path stroke="none" fill="#767D83" d="M536.1 269.25 Q536.1 272.35 533.85 274.55 531.65 276.8 528.55 276.8 525.4 276.8 523.15 274.55 520.95 272.35 520.95 269.25 520.95 266.1 523.15 263.85 525.4 261.65 528.55 261.65 531.65 261.65 533.85 263.85 536.1 266.1 536.1 269.25"/>
    <path stroke="none" fill="#7DBF49" d="M540.75 257.15 L552 255.3 556.55 284.95 550.55 285.55 529.75 287.65 525.75 288.05 513.45 289.35 503.15 290.4 501.9 282.55 544 277.35 540.75 257.15"/>
    <path stroke="none" fill="#FFCC00" d="M550.55 285.55 L552.15 289.7 530.65 291.65 529.75 287.65 550.55 285.55 M525.75 288.05 L526.65 292 514.55 293.1 513.45 289.35 525.75 288.05"/>
    <path stroke="none" fill="#E4F4FF" d="M503.15 290.4 L504.45 297.25 501.05 298.15 499.4 287.85 497.7 277.45 494.45 257.65 497.75 256.9 498.95 263.95 501.9 282.55 503.15 290.4"/>
    <path stroke="none" fill="#E5E5E5" d="M499.4 287.85 L496.55 288.5 495.6 277.75 497.7 277.45 499.4 287.85"/>
    <path stroke="none" fill="#E4F4FF" d="M349.9 260.35 L354.65 259.4 363.3 289.25 358.35 290.3 349.9 260.35 M371 251.65 L370.3 249.2 378.4 247.6 378.9 249.85 371 251.65 M385 248.45 L392.35 246.75 394.85 253.2 387.15 254.55 385 248.45 M375.85 286.7 L371.4 287.65 363.35 257.65 366.95 256.9 375.85 286.7 M371.7 260.35 L381.05 257.95 383.4 265.35 374.35 267.45 371.7 260.35 M356.7 258.95 L361.6 258 370 287.9 365.6 288.8 356.7 258.95"/>
    <path stroke="none" fill="#7DBF49" d="M356.7 258.95 L365.6 288.8 370 287.9 361.6 258 356.7 258.95 M349.9 260.35 L358.35 290.3 363.3 289.25 354.65 259.4 349.9 260.35 M372.1 303.35 L369 303.65 366.5 292.6 352.35 295.1 345.2 260.7 347.4 259.6 346.45 257.25 369.25 252 371.25 257.35 384.1 255.1 381.9 249.15 385 248.45 387.15 254.55 394.85 253.2 392.35 246.75 394.55 246.25 395.45 248.6 397.8 247.7 411.8 296.2 408.5 297.55 409.45 299.9 405.25 300.3 372.1 303.35 M375.85 286.7 L366.95 256.9 363.35 257.65 371.4 287.65 375.85 286.7 M371.7 260.35 L374.35 267.45 383.4 265.35 381.05 257.95 371.7 260.35 M385.5 284.65 L401.35 281.8 397.8 265.35 382.85 268.5 385.5 284.65 M405.35 293.85 L404.15 289.6 373.8 296.3 374.8 299.9 405.35 293.85 M372.45 291.45 L373.35 294.6 403.55 287.5 402.85 285.1 372.45 291.45"/>
    <path stroke="none" fill="#E26231" d="M369.25 252 L371 251.65 378.9 249.85 381.9 249.15 384.1 255.1 371.25 257.35 369.25 252"/>
    <path stroke="none" fill="#ECDCB6" d="M385.5 284.65 L382.85 268.5 397.8 265.35 401.35 281.8 385.5 284.65"/>
    <path stroke="none" fill="#4C5154" d="M372.45 291.45 L402.85 285.1 403.55 287.5 373.35 294.6 372.45 291.45 M405.35 293.85 L374.8 299.9 373.8 296.3 404.15 289.6 405.35 293.85"/>
    <path stroke="none" fill="#FFCC00" d="M405.25 300.3 L405.25 303.1 372.95 307.2 372.1 303.35 405.25 300.3"/>
    <path stroke="none" fill="#E26231" d="M626.4 271.2 Q624 270.55 622.1 268.65 619.3 265.8 619.3 261.8 619.3 257.75 622.1 254.9 625 252.05 629 252.05 633 252.05 635.85 254.9 638.75 257.75 638.75 261.8 638.75 265.8 635.85 268.65 634.2 270.3 632.15 271 L631.15 271.3 629 271.5 628.05 271.5 626.4 271.2"/>
    <path stroke="none" fill="#E4F4FF" d="M626.4 271.2 L628.05 271.5 629 271.5 631.15 271.3 632.15 271 633.35 286.05 627.8 286.6 626.4 271.2"/>
    <path stroke="none" fill="#FFCC00" d="M633.35 286.05 L646.9 284.7 646.9 290.7 617.4 294.6 616.15 287.75 627.8 286.6 633.35 286.05"/>
    <path stroke="none" fill="#959FA6" d="M646.9 290.7 L646.9 300.4 618.65 301.35 617.4 294.6 646.9 290.7"/>
    <path stroke="none" fill="#4C5154" d="M592.3 257.3 L595.3 257.3 593.45 281.1 590.85 281.15 588.1 281.25 585.3 281.3 584.1 257.2 586.6 257.25 592.3 257.3 M591.1 285.3 L604.4 285.35 601.65 299.35 575.35 299.5 572.65 285.1 575.8 285.15 581.15 285.2 587.8 285.2 591.1 285.3"/>
    <path stroke="none" fill="#E26231" d="M592.3 257.3 L586.6 257.25 586.65 253.95 592.25 253.95 592.3 257.3 M575.8 285.15 L575.55 282.7 581.05 282.4 581.15 285.2 575.8 285.15"/>
    <path stroke="none" fill="#E4F4FF" d="M588.1 281.25 L590.85 281.15 591.1 285.3 587.8 285.2 588.1 281.25"/>
    <path stroke="none" fill="#8F979F" d="M661.25 288.3 L658.25 266.9 675.5 265.3 678.3 279.85 686.55 278.85 686.55 264.3 704.8 262.6 703 288.5 661.25 288.3 M664.4 272.3 L665.5 276.8 663 277.45 663.3 281.1 666.45 280.7 667.2 283.9 671.3 283.15 670.8 280.15 674.15 279.7 672.9 274.8 670.05 275.6 669.35 271.55 664.4 272.3 M701.5 280.75 Q701.5 279.35 700.5 278.35 699.55 277.35 698.1 277.35 696.7 277.35 695.65 278.35 694.7 279.35 694.7 280.75 694.7 282.2 695.65 283.15 696.7 284.15 698.1 284.15 699.55 284.15 700.5 283.15 701.5 282.2 701.5 280.75 M695.25 273.5 Q695.25 272.15 694.35 271.25 693.45 270.35 692.1 270.35 690.8 270.35 689.9 271.25 689 272.15 689 273.5 689 274.8 689.9 275.7 690.8 276.6 692.1 276.6 693.45 276.6 694.35 275.7 695.25 274.8 695.25 273.5 M677.75 284 L678.7 286.35 686.35 285.4 686.35 282.85 677.75 284"/>
    <path stroke="none" fill="#E26231" d="M695.25 273.5 Q695.25 274.8 694.35 275.7 693.45 276.6 692.1 276.6 690.8 276.6 689.9 275.7 689 274.8 689 273.5 689 272.15 689.9 271.25 690.8 270.35 692.1 270.35 693.45 270.35 694.35 271.25 695.25 272.15 695.25 273.5 M701.5 280.75 Q701.5 282.2 700.5 283.15 699.55 284.15 698.1 284.15 696.7 284.15 695.65 283.15 694.7 282.2 694.7 280.75 694.7 279.35 695.65 278.35 696.7 277.35 698.1 277.35 699.55 277.35 700.5 278.35 701.5 279.35 701.5 280.75"/>
    <path stroke="none" fill="#4C5154" d="M664.4 272.3 L669.35 271.55 670.05 275.6 672.9 274.8 674.15 279.7 670.8 280.15 671.3 283.15 667.2 283.9 666.45 280.7 663.3 281.1 663 277.45 665.5 276.8 664.4 272.3 M677.75 284 L686.35 282.85 686.35 285.4 678.7 286.35 677.75 284"/>
    <path stroke="none" fill="#828991" d="M675.5 265.3 L686.55 264.3 686.55 278.85 678.3 279.85 675.5 265.3 M703 288.5 L698.9 290.85 664.8 290.85 661.25 288.3 703 288.5"/>
    <path stroke="none" fill="#767D83" d="M751.85 265.55 L749.55 272.15 740.95 273.05 738.1 266.15 751.85 265.55 M731.7 263.5 L723.65 267.9 722.5 264.95 729.95 261.15 731.7 263.5 M765.8 267.8 L757.9 262.95 759.55 261.3 767 266.05 765.8 267.8 M736.95 275 Q736.95 277.55 735.15 279.3 733.4 281.15 730.85 281.15 728.35 281.15 726.55 279.3 724.75 277.55 724.75 275 724.75 272.5 726.55 270.7 728.35 268.9 730.85 268.9 733.4 268.9 735.15 270.7 736.95 272.5 736.95 275 M734.5 275 Q734.5 273.45 733.4 272.35 732.25 271.2 730.7 271.2 729.1 271.2 728 272.35 726.9 273.45 726.9 275 726.9 276.6 728 277.7 729.1 278.8 730.7 278.8 732.25 278.8 733.4 277.7 734.5 276.6 734.5 275"/>
    <path stroke="none" fill="#4C5154" d="M738.1 266.15 L740.95 273.05 749.55 272.15 751.85 265.55 756.05 261.8 757.9 262.95 765.8 267.8 767.65 268.95 768.6 288 760.75 291.25 752.55 283.1 736.4 283.65 726.7 292.3 720.4 289.95 721.75 268.9 723.65 267.9 731.7 263.5 734.1 262.2 738.1 266.15 M752.35 273.95 Q752.35 274.8 752.95 275.4 753.45 275.9 754.3 275.9 755.15 275.9 755.8 275.4 756.3 274.8 756.3 273.95 756.3 273.05 755.8 272.55 755.15 271.95 754.3 271.95 753.45 271.95 752.95 272.55 752.35 273.05 752.35 273.95 M760.7 271.3 Q760.7 270.45 760.2 269.9 759.65 269.4 758.85 269.4 758.1 269.4 757.55 269.9 757.05 270.45 757.05 271.3 757.05 272.05 757.55 272.55 758.1 273.05 758.85 273.05 759.65 273.05 760.2 272.55 760.7 272.05 760.7 271.3 M736.95 275 Q736.95 272.5 735.15 270.7 733.4 268.9 730.85 268.9 728.35 268.9 726.55 270.7 724.75 272.5 724.75 275 724.75 277.55 726.55 279.3 728.35 281.15 730.85 281.15 733.4 281.15 735.15 279.3 736.95 277.55 736.95 275 M734.5 275 Q734.5 276.6 733.4 277.7 732.25 278.8 730.7 278.8 729.1 278.8 728 277.7 726.9 276.6 726.9 275 726.9 273.45 728 272.35 729.1 271.2 730.7 271.2 732.25 271.2 733.4 272.35 734.5 273.45 734.5 275 M764.1 275.15 Q764.1 274.35 763.5 273.75 762.95 273.15 762.1 273.15 761.25 273.15 760.65 273.75 760.1 274.35 760.1 275.15 760.1 276 760.65 276.55 761.25 277.1 762.1 277.1 762.95 277.1 763.5 276.55 764.1 276 764.1 275.15 M756 278.25 Q756 279 756.55 279.55 757.1 280.1 757.85 280.1 758.65 280.1 759.15 279.55 759.7 279 759.7 278.25 759.7 277.45 759.15 276.95 758.65 276.4 757.85 276.4 757.1 276.4 756.55 276.95 756 277.45 756 278.25"/>
    <path stroke="none" fill="#FFCC00" d="M752.35 273.95 Q752.35 273.05 752.95 272.55 753.45 271.95 754.3 271.95 755.15 271.95 755.8 272.55 756.3 273.05 756.3 273.95 756.3 274.8 755.8 275.4 755.15 275.9 754.3 275.9 753.45 275.9 752.95 275.4 752.35 274.8 752.35 273.95"/>
    <path stroke="none" fill="#E26231" d="M760.7 271.3 Q760.7 272.05 760.2 272.55 759.65 273.05 758.85 273.05 758.1 273.05 757.55 272.55 757.05 272.05 757.05 271.3 757.05 270.45 757.55 269.9 758.1 269.4 758.85 269.4 759.65 269.4 760.2 269.9 760.7 270.45 760.7 271.3"/>
    <path stroke="none" fill="#7DBF49" d="M764.1 275.15 Q764.1 276 763.5 276.55 762.95 277.1 762.1 277.1 761.25 277.1 760.65 276.55 760.1 276 760.1 275.15 760.1 274.35 760.65 273.75 761.25 273.15 762.1 273.15 762.95 273.15 763.5 273.75 764.1 274.35 764.1 275.15"/>
    <path stroke="none" fill="#4C94D4" d="M756 278.25 Q756 277.45 756.55 276.95 757.1 276.4 757.85 276.4 758.65 276.4 759.15 276.95 759.7 277.45 759.7 278.25 759.7 279 759.15 279.55 758.65 280.1 757.85 280.1 757.1 280.1 756.55 279.55 756 279 756 278.25"/>
    <path stroke="none" fill="#FFFFFF" d="M5.5 360.9 L10.35 340.55 7.5 339.85 9.2 334.95 16.2 337.05 19.35 338 26.8 340.25 25.05 344.2 21.55 343.35 20 347.65 13.9 345.25 13.1 347.8 19 350.55 17.7 354.2 12 351.45 10.85 355.15 16.75 356.9 14.55 363.1 5.5 360.9"/>
    <path stroke="none" fill="#E5E5E5" d="M5.5 360.9 L14.55 363.1 10.9 369.2 9.5 368.8 5.95 367.75 4.8 367.4 5.5 360.9 M20 347.65 L19 350.55 13.1 347.8 13.9 345.25 20 347.65 M17.7 354.2 L16.75 356.9 10.85 355.15 12 351.45 17.7 354.2"/>
    <path stroke="none" fill="#899298" d="M16.2 337.05 L16.75 334.9 13.5 333.8 14.9 330.65 25.55 333.9 23.8 337.05 20 335.75 19.35 338 16.2 337.05 M9.5 368.8 L5.6 378.6 2.2 382.75 2.2 377.95 5.95 367.75 9.5 368.8"/>
    <path stroke="none" fill="#E5E5E5" d="M194.6 338.3 L194.75 332.4 209.25 341.05 208.1 348.4 194.6 338.3 M208.1 348.4 L203.65 359.55 200.05 362.95 201.15 355.55 208.1 348.4"/>
    <path stroke="none" fill="#FFFFFF" d="M208.1 348.4 L201.15 355.55 Q188.5 362.7 178.55 354.5 L194.6 338.3 208.1 348.4"/>
    <path stroke="none" fill="#3D78AD" d="M200.05 362.95 L180.85 381.05 172.25 370.3 170.55 362.55 181.3 376.05 201.15 355.55 200.05 362.95"/>
    <path stroke="none" fill="#4C94D4" d="M170.55 362.55 L178.55 354.5 Q188.5 362.7 201.15 355.55 L181.3 376.05 170.55 362.55"/>
    <path stroke="none" fill="#3D78AD" d="M152.95 360 L133.75 378.1 125.15 367.35 123.45 359.6 134.2 373.1 154.05 352.6 152.95 360"/>
    <path stroke="none" fill="#4C94D4" d="M123.45 359.6 L131.45 351.55 Q141.4 359.75 154.05 352.6 L134.2 373.1 123.45 359.6"/>
    <path stroke="none" fill="#E5E5E5" d="M161 345.45 L156.55 356.6 152.95 360 154.05 352.6 161 345.45"/>
    <path stroke="none" fill="#FFFFFF" d="M161 345.45 L154.05 352.6 Q141.4 359.75 131.45 351.55 L147.5 335.35 161 345.45"/>
    <path stroke="none" fill="#E26231" d="M251.2 382.05 L244.45 341.55 249.35 341 250 345.2 257.35 344.25 256.75 340.15 259.85 339.8 264.9 339.2 276.95 337.85 281.95 337.25 286.1 336.8 286.35 340.6 293.5 339.7 293.2 335.95 298.95 335.3 302.95 376.3 251.2 382.05 M288.6 358.6 Q288.6 353.05 284.6 349.05 280.7 345.1 275.1 345.1 269.5 345.1 265.55 349.05 261.6 353.05 261.6 358.6 261.6 364.2 265.55 368.1 269.5 372.1 275.1 372.1 280.7 372.1 284.6 368.1 288.6 364.2 288.6 358.6 M270.55 352.4 L276.4 351.5 277.1 355.6 281.15 354.6 282.05 360.45 278.05 361.15 278.7 365.2 273.85 366.05 272.9 362 268.35 362.75 267.5 357.9 271.65 356.9 270.55 352.4"/>
    <path stroke="none" fill="#BD5229" d="M249.35 341 L256.75 340.15 257.35 344.25 250 345.2 249.35 341 M286.1 336.8 L293.2 335.95 293.5 339.7 286.35 340.6 286.1 336.8 M302.95 376.3 L296 384.15 259.6 385.85 251.2 382.05 302.95 376.3"/>
    <path stroke="none" fill="#FFFFFF" d="M259.4 337.4 L257.95 330.55 281.95 327.55 281.95 334.05 276.95 334.8 276.95 332.3 263.7 333.8 264.35 336.7 259.4 337.4 M270.55 352.4 L271.65 356.9 267.5 357.9 268.35 362.75 272.9 362 273.85 366.05 278.7 365.2 278.05 361.15 282.05 360.45 281.15 354.6 277.1 355.6 276.4 351.5 270.55 352.4 M288.6 358.6 Q288.6 364.2 284.6 368.1 280.7 372.1 275.1 372.1 269.5 372.1 265.55 368.1 261.6 364.2 261.6 358.6 261.6 353.05 265.55 349.05 269.5 345.1 275.1 345.1 280.7 345.1 284.6 349.05 288.6 353.05 288.6 358.6"/>
    <path stroke="none" fill="#E5E5E5" d="M259.85 339.8 L259.4 337.4 264.35 336.7 264.9 339.2 259.85 339.8 M281.95 334.05 L281.95 337.25 276.95 337.85 276.95 334.8 281.95 334.05"/>
    <path stroke="none" fill="#4C5154" d="M375.7 348.9 L373.75 348.55 376.15 329.3 387.55 329.3 387.55 350.85 384.8 350.35 375.7 348.9"/>
    <path stroke="none" fill="#A16142" d="M375.7 348.9 L384.8 350.35 385 352.5 387.95 353.75 388.15 358.55 378.1 360.2 380.2 375.9 388.9 374.85 389.3 384.15 372 382.1 372 353.1 375.05 351.55 375.7 348.9"/>
    <path stroke="none" fill="#E4F4FF" d="M388.15 358.55 L388.9 374.85 380.2 375.9 378.1 360.2 388.15 358.55"/>
    <path stroke="none" fill="#585E62" d="M421.5 370.65 L421.35 370.65 Q419.3 370.65 417.9 369.2 416.45 367.75 416.45 365.75 416.45 363.7 417.9 362.3 419.25 360.9 421.25 360.85 L421.35 360.85 Q423.35 360.85 424.8 362.3 425.6 363.05 425.95 364 L426.25 365.75 426.05 367.2 Q425.7 368.3 424.8 369.2 423.4 370.6 421.5 370.65 M427.3 354.85 Q426.85 353.45 426.85 351.85 426.85 348.25 429.4 345.7 431.45 343.6 434.3 343.25 L435.5 343.15 Q439.15 343.15 441.7 345.7 444.2 348.25 444.2 351.85 L444.1 353.35 Q443.7 356 441.7 358 439.15 360.55 435.5 360.55 433.2 360.55 431.3 359.5 L429.4 358 Q427.95 356.55 427.3 354.85 M451.4 370.8 L445.5 370.1 444.25 365.15 471.5 368 470.3 373.15 461.5 372.05 451.4 370.8 M456.8 384.2 L456.8 391.2 417.25 391.2 417.25 385.45 456.8 384.2"/>
    <path stroke="none" fill="#4C5154" d="M421.25 360.85 L427.3 354.85 Q427.95 356.55 429.4 358 L431.3 359.5 425.95 364 Q425.6 363.05 424.8 362.3 423.35 360.85 421.35 360.85 L421.25 360.85 M434.3 343.25 L431.25 340.1 435 337.5 440.5 333.65 443.15 331.75 456.65 348.6 447 356.35 444.1 353.35 444.2 351.85 Q444.2 348.25 441.7 345.7 439.15 343.15 435.5 343.15 L434.3 343.25 M426.05 367.2 L432.25 373.4 443.55 375.5 451.4 370.8 461.5 372.05 448.9 380.15 456.8 384.2 417.25 385.45 427.95 377.65 421.5 370.65 Q423.4 370.6 424.8 369.2 425.7 368.3 426.05 367.2"/>
    <path stroke="none" fill="#767D83" d="M435 337.5 L426.85 326 430.9 322.2 440.5 333.65 435 337.5 M456.65 348.6 L458.4 347.25 462.95 352.4 450.65 363.45 445 357.9 447 356.35 456.65 348.6"/>
    <path stroke="none" fill="#A16142" d="M323.85 359.9 L323.6 353.8 331.3 349.2 331.3 347.1 341.95 348 341.95 349.2 349.65 353.8 348.4 383.75 324.85 383.75 324.6 377.3 341.85 376.05 340.6 358.65 323.85 359.9"/>
    <path stroke="none" fill="#4C5154" d="M331.3 347.1 L329.35 346.95 332.3 329.65 342.35 332 344.7 348.2 341.95 348 331.3 347.1"/>
    <path stroke="none" fill="#E4F4FF" d="M324.6 377.3 L323.85 359.9 340.6 358.65 341.85 376.05 324.6 377.3"/>
    <path stroke="none" fill="#E5E5E5" d="M499.6 341.55 L500.8 360.45 Q510.2 363.35 516.1 371 518.35 373.9 520.05 377.5 L485.1 378.6 Q487.55 365.65 494.45 360.2 L492.7 342.25 499.6 341.55 M487.75 376.35 L515.3 374.3 Q509 366.5 499.95 366.3 492.3 366.1 487.75 376.35"/>
    <path stroke="none" fill="#FFFFFF" d="M492.7 342.25 L488.65 342.7 487.6 336.05 503.4 334.8 503.4 341.2 499.6 341.55 492.7 342.25"/>
    <path stroke="none" fill="#4C94D4" d="M487.75 376.35 Q492.3 366.1 499.95 366.3 509 366.5 515.3 374.3 L487.75 376.35"/>
    <path stroke="none" fill="#FFFFFF" d="M535.95 340.1 L534.2 340.25 533.1 335.8 549.1 334.45 549.1 338.75 547 338.95 535.95 340.1"/>
    <path stroke="none" fill="#E5E5E5" d="M535.95 340.1 L547 338.95 547.6 374.55 Q547.65 378.5 544.5 378.85 540.05 379.5 539.65 375.7 L535.95 340.1"/>
    <path stroke="none" fill="#FFFFFF" d="M573.3 336.95 L606.2 335.4 608.7 370.8 604.15 378 580.9 378 576.6 372.6 579.2 343.5 573.3 336.95 M582.9 355.1 L581 368.55 584.6 374.45 601.7 374.45 604.95 368.65 603.95 353.95 582.9 355.1"/>
    <path stroke="none" fill="#E26231" d="M582.9 355.1 L603.95 353.95 604.95 368.65 601.7 374.45 584.6 374.45 581 368.55 582.9 355.1"/>
    <path stroke="none" fill="#FFFFFF" d="M636.65 336.65 L633.7 336.95 633.95 329.1 644.8 329.1 646.15 335.6 643.55 335.85 636.65 336.65"/>
    <path stroke="none" fill="#E5E5E5" d="M636.65 336.65 L643.55 335.85 643.55 347.4 657.1 384.35 627.8 384.35 637.45 349.35 636.65 336.65 M633.5 380.15 L649.8 380.4 644.75 360.5 637.8 361.6 633.5 380.15"/>
    <path stroke="none" fill="#7DBF49" d="M633.5 380.15 L637.8 361.6 644.75 360.5 649.8 380.4 633.5 380.15"/>
    <path stroke="none" fill="#E5E5E5" d="M695.8 344.4 L687 344.95 686.55 340.5 695.7 339.55 695.8 344.4 M704.05 343.85 L704.1 338.4 713.3 338.55 712.8 343.25 704.05 343.85 M720.45 342.75 L720.3 338.55 729.55 338.35 729.35 342.15 720.45 342.75 M728.85 350.1 L727.7 367.85 Q727.5 371.15 724.95 371.25 721.2 371.5 721.1 368.3 L720.65 350.6 728.85 350.1 M711.95 351.2 L710.2 368 Q709.9 371.25 707.25 371.2 703.5 371.3 703.55 368.1 L703.85 351.75 711.95 351.2 M695.95 352.3 L696.2 369.15 Q696.25 372.45 693.65 372.7 689.95 373.25 689.6 370.1 L687.85 352.8 695.95 352.3"/>
    <path stroke="none" fill="#FFFFFF" d="M686.55 340.5 L685.1 340.65 684.15 336.95 697.45 335.85 697.45 339.4 695.7 339.55 686.55 340.5 M704.1 338.4 L702.6 338.35 702.15 334.55 715.5 335.05 715.1 338.6 713.3 338.55 704.1 338.4 M720.3 338.55 L718.85 338.6 718.25 334.85 731.6 334.75 731.3 338.3 729.55 338.35 720.3 338.55"/>
    <path stroke="none" fill="#CDC09F" d="M695.8 344.4 L704.05 343.85 712.8 343.25 720.45 342.75 729.35 342.15 736.25 341.7 736.25 378.85 730.8 378.85 730.8 349.95 728.85 350.1 720.65 350.6 711.95 351.2 703.85 351.75 695.95 352.3 687.85 352.8 684.4 353.05 687.4 378.85 683 378.85 677.75 345.55 687 344.95 695.8 344.4"/>
    <path stroke="none" fill="#4C5154" d="M10.65 437.45 L22.2 430.8 23.9 421.65 42.7 420.75 45.35 427.9 60.4 432.75 10.65 437.45 M26.65 430.25 L40 428.55 39 424.8 27.65 424.8 26.65 430.25"/>
    <path stroke="none" fill="#565E62" d="M60.4 432.75 L72.7 434.45 70.5 440 59.35 441.55 56 469.7 16.55 472.7 11.95 445.2 1.7 445.2 0 440.65 10.65 437.45 60.4 432.75"/>
    <path stroke="none" fill="#E26231" d="M157.4 429.4 L156.15 427.85 167.7 411.35 174.9 414.9 161.6 434.9 160.3 433.1 157.4 429.4"/>
    <path stroke="none" fill="#E4F4FF" d="M157.4 429.4 L160.3 433.1 158.4 436.1 155.65 432.25 157.4 429.4"/>
    <path stroke="none" fill="#565E62" d="M158.4 436.1 L160.8 439.45 129.05 480.65 116.55 482.1 153.55 429.35 155.65 432.25 158.4 436.1"/>
    <path stroke="none" fill="#E4F4FF" d="M77.9 475.65 L104.35 435.5 116.15 413.4 120.35 416.1 108.6 438.45 Q120.7 448.35 113.8 464.65 103.8 488.25 77.9 475.65"/>
    <path stroke="none" fill="#4C94D4" d="M669.45 458.65 L670.45 459.3 655.9 479.75 649.9 473.25 662.25 453.5 663.55 454.4 669.45 458.65"/>
    <path stroke="none" fill="#E5E5E5" d="M669.45 458.65 L663.55 454.4 664.65 452.5 662.6 451.3 Q672.75 428.6 695.35 413.7 L669.45 458.65"/>
    <path stroke="none" fill="#FFFFFF" d="M662.6 451.3 L657.65 448.45 Q672.2 418.05 695.35 413.7 672.75 428.6 662.6 451.3"/>
    <path stroke="none" fill="#FFFFFF" d="M51.9 339.6 L59.1 346.8 54.2 351.75 Q52.7 353.2 50.55 353.15 48.5 353.2 47 351.7 45.5 350.2 45.5 348.1 45.5 346 47 344.55 L51.9 339.6"/>
    <path stroke="none" fill="#E26231" d="M51.9 339.6 L56.8 334.7 Q58.3 333.2 60.4 333.2 62.5 333.25 64 334.75 65.5 336.25 65.45 338.25 65.5 340.4 64 341.9 L59.1 346.8 51.9 339.6"/>
    <path stroke="none" fill="#4C94D4" d="M85.85 340.6 L90.8 335.65 Q92.25 334.2 94.4 334.15 96.45 334.2 97.95 335.7 L98 335.7 Q99.45 337.2 99.5 339.25 99.45 341.4 98 342.85 L93.05 347.8 85.85 340.6"/>
    <path stroke="none" fill="#FFFFFF" d="M85.85 340.6 L93.05 347.8 88.15 352.7 Q86.65 354.2 84.6 354.15 82.5 354.15 81.05 352.65 L81 352.65 Q79.5 351.15 79.5 349.05 79.45 347 80.95 345.5 L85.85 340.6"/>
    <path stroke="none" fill="#EEEEEE" d="M47.5 366.9 L60.5 378.75 Q58.3 380.2 55.5 380.2 51.75 380.2 49.1 377.55 46.45 374.9 46.45 371.15 46.45 368.8 47.5 366.9 M49.7 364.2 Q52.15 362.1 55.5 362.1 59.25 362.1 61.9 364.75 64.55 367.4 64.55 371.15 64.55 374.15 62.9 376.45 L49.7 364.2"/>
    <path stroke="none" fill="#D4D4D4" d="M47.5 366.9 Q48.1 365.75 49.1 364.75 L49.7 364.2 62.9 376.45 61.9 377.55 60.5 378.75 47.5 366.9"/>
    <path stroke="none" fill="#DEB0DE" d="M96.95 373.35 L96.3 374.7 95.25 376.2 79.65 368.1 80.65 365.6 81.05 364.95 96.95 373.35"/>
    <path stroke="none" fill="#FFCCFF" d="M96.95 373.35 L81.05 364.95 Q82.9 362.25 86.1 361.4 89.75 360.45 93 362.3 96.25 364.2 97.2 367.8 97.95 370.7 96.95 373.35 M95.25 376.2 Q93.55 378.2 90.8 378.9 87.2 379.85 83.95 378 80.7 376.1 79.75 372.5 79.15 370.25 79.65 368.1 L95.25 376.2"/>
    <path stroke="none" fill="#FFFFFF" d="M239.2 462.7 L247.75 463.2 251.35 437.8 235.35 437.8 239.2 462.7 M235.75 467.45 L230.05 425.7 257.3 427.1 251.6 467.75 235.75 467.45"/>
    <path stroke="none" fill="#4C94D4" d="M239.2 462.7 L235.35 437.8 251.35 437.8 247.75 463.2 239.2 462.7"/>
    <path stroke="none" fill="#E5E5E5" d="M209.15 443 L210 440.25 213.6 440.95 213 443.85 209.15 443 M206.3 452.5 L207.4 448.95 211.9 449.5 211.15 453.35 206.3 452.5"/>
    <path stroke="none" fill="#FFFFFF" d="M206.3 452.5 L204.7 457.8 185.85 457.8 184.05 454.05 206.3 452.5 M210 440.25 L209.15 443 208.4 445.5 181.05 447.9 176.7 439 211.4 435.65 210 440.25 M213 443.85 L213.6 440.95 220.8 442.35 217.05 454.35 211.15 453.35 211.9 449.5 214.25 449.8 216.15 444.55 213 443.85"/>
    <path stroke="none" fill="#4C94D4" d="M181.05 447.9 L208.4 445.5 207.4 448.95 206.3 452.5 184.05 454.05 181.05 447.9"/>
    <path stroke="none" fill="#BFCBD4" d="M273.65 464.45 L270.45 430.95 296.85 429 296.1 437.5 305 438.65 301.65 457.75 294.45 456.05 293.75 463.8 273.65 464.45 M294.7 453.1 L299.3 453.9 301 441.9 295.8 440.75 294.7 453.1"/>
    <path stroke="none" fill="#FFFFFF" d="M522.65 459.5 L540.65 472.2 544.4 474.8 537.85 479.35 518.9 464.9 519.65 457.4 522.65 459.5"/>
    <path stroke="none" fill="#4C94D4" d="M522.65 459.5 L529.3 446.45 529.3 431.4 536.35 428.4 539.6 439.55 555.7 420.75 Q571.2 419.95 575 438.7 L540.65 472.2 522.65 459.5"/>
    <path stroke="none" fill="#ECDCB6" d="M701.8 468.25 L696.65 464.95 692.5 462.3 721.2 415.45 726.25 417.55 732.75 420.35 739.45 423.15 709.55 473.15 701.8 468.25 M727.75 415.15 L725.55 414 733.95 400.65 743.9 404.35 736.7 419.7 734.05 418.35 727.75 415.15 M700.35 470.5 L703.1 471.8 694.6 485 685.3 481.35 692.3 466.7 694.8 467.9 700.35 470.5"/>
    <path stroke="none" fill="#BFB293" d="M726.25 417.55 L727.75 415.15 734.05 418.35 732.75 420.35 726.25 417.55 M701.8 468.25 L700.35 470.5 694.8 467.9 696.65 464.95 701.8 468.25"/>
    <path stroke="none" fill="#B4A88B" d="M620.2 427.35 L615.6 424.95 626 423.55 626.5 424.4 620.2 427.35 M647.2 430.5 L645.75 435.7 613.2 485.15 576.55 459.85 575 456.55 612.9 480.25 647.2 430.5"/>
    <path stroke="none" fill="#CDC09F" d="M647.2 430.5 L612.9 480.25 575 456.55 611.65 411.35 647.2 430.5 M626.5 424.4 L626 423.55 615.6 424.95 620.2 427.35 631.05 433 626.5 424.4"/>
    <path stroke="none" fill="#4C94D4" d="M367.1 432.8 L428.8 426.95 Q430 450.45 414.6 460.25 L419.75 467.45 381.6 467.45 386.3 460.35 Q368.35 454.65 367.1 432.8"/>
    <path stroke="none" fill="#77985D" d="M331.65 414.6 L329.85 414.8 328.8 406.25 341.45 404.65 343.2 413.2 340.55 413.5 331.65 414.6"/>
    <path stroke="none" fill="#8FB670" d="M331.65 414.6 L340.55 413.5 342.2 424.95 351.15 433.3 348.95 474.15 329.7 474.75 328.9 464.9 343.05 463.45 341.6 439.05 326.95 440.5 326.45 434.2 332.95 426.4 331.65 414.6"/>
    <path stroke="none" fill="#E4F4FF" d="M328.9 464.9 L326.95 440.5 341.6 439.05 343.05 463.45 328.9 464.9"/>
    <path stroke="none" fill="#FFFFFF" d="M174.7 462.25 L219.65 460.4 215.85 465.85 179.55 467.05 174.7 462.25"/>
    <path stroke="none" fill="#BFCBD4" d="M469.9 465.25 L474.3 444.1 469.5 436 473.95 422.45 480.25 423.05 483 437.3 477.15 445.35 479.75 466.15 473.6 470.35 469.9 465.25"/>
    <path stroke="none" fill="#BFCBD4" d="M450.2 422.95 L454.1 431.8 455.8 431.9 456.95 421.85 458.8 432.05 460.35 432.15 463.25 419.9 463.8 436.3 460.25 443.4 460.3 468.2 454.1 472.35 450.5 467.1 454.25 442.9 451.1 435.75 450.2 422.95"/>
    <path stroke="none" fill="#BFCBD4" d="M490.55 466.2 L495.1 442.8 489.15 433.7 497.35 418.5 499.95 467.05 494.1 471.1 490.55 466.2"/>
  </g>
</svg>