# Blender v2.75 (sub 0) OBJ File: 'Rock7.blend'
# www.blender.org
mtllib Rock7.mtl
o Icosphere
v -0.909786 -0.062820 1.786579
v -1.029351 0.095146 1.773680
v -1.063141 -0.122835 1.999545
v -1.045548 -0.345523 1.842623
v -1.049278 -0.351552 1.690444
v -1.109412 -0.026555 1.553577
v -1.279817 -0.101396 1.963799
v -1.289000 -0.337685 1.946411
v -1.235386 -0.407065 1.642283
v -1.271644 -0.295328 1.622407
v -1.225444 -0.065156 1.684495
v -1.400592 -0.257377 1.777689
v -0.949720 -0.065458 1.906225
v -0.934991 0.059500 1.765814
v -1.016664 -0.013273 1.938650
v -1.047550 0.004777 1.679435
v -0.976591 -0.042542 1.675476
v -0.948385 -0.225917 1.851499
v -1.063002 -0.252089 1.964880
v -0.959550 -0.227411 1.750887
v -1.001899 -0.358641 1.753963
v -1.061595 -0.166001 1.593188
v -1.123241 0.057178 1.705788
v -1.204309 -0.015223 1.547653
v -1.166909 -0.118983 2.024829
v -1.145472 0.008831 1.907036
v -1.158252 -0.360960 1.892947
v -1.215909 -0.263449 2.036903
v -1.116848 -0.412031 1.663344
v -1.105421 -0.404864 1.744815
v -1.214870 -0.123709 1.507532
v -1.145417 -0.336762 1.631326
v -1.251918 -0.019512 1.813865
v -1.328982 -0.229112 2.002413
v -1.256270 -0.387944 1.763126
v -1.277622 -0.372834 1.612355
v -1.283995 -0.175657 1.612521
v -1.360065 -0.178639 1.893255
v -1.328486 -0.198233 1.790449
v -1.378164 -0.291590 1.833547
v -1.356408 -0.345080 1.672935
v -1.362672 -0.295373 1.696934
v -1.602529 -0.418762 0.445444
v -2.189087 0.003461 0.693419
v -1.006141 -0.346900 -0.737172
v 0.381333 -0.264658 -0.962595
v -0.580637 -0.046764 -0.433951
v -1.767801 0.278239 0.894158
v -1.436649 0.376869 -0.890979
v 0.338802 0.248669 -1.466874
v 0.852351 0.446310 -1.203572
v -0.426595 0.693916 -0.729579
v -1.912836 0.651256 0.076019
v -1.274148 0.907268 -1.105604
v -1.101928 -0.465645 -0.090469
v -1.891342 -0.288332 0.785289
v -1.653637 -0.261750 -0.095815
v -1.987254 0.097251 0.682077
v -1.747651 -0.127139 0.742914
v -0.918928 -0.464950 -0.302359
v -0.099178 -0.326561 -0.952485
v -0.907282 -0.297829 0.027449
v -0.537610 -0.259271 -0.530150
v -1.640634 0.108615 0.518252
v -2.243559 0.336199 0.625366
v -1.949302 0.560141 0.699896
v -1.390406 -0.091719 -0.819941
v -2.361967 0.203615 -0.085318
v 1.036204 -0.023575 -1.349075
v -0.547726 -0.075498 -1.200585
v -0.113568 0.118004 -0.783347
v 0.731326 -0.017292 -1.076857
v -1.775112 0.553512 0.508674
v -0.610889 0.281228 -0.466770
v -2.099226 0.621248 -0.215012
v -0.418362 0.299037 -1.361646
v 1.076364 0.395589 -1.451116
v 0.558852 0.622791 -1.111936
v -1.080469 0.823377 -0.206350
v -1.307498 0.670581 -1.077211
v -1.392602 0.819450 -0.736008
v -0.772119 0.676578 -1.373460
v 0.039775 0.783443 -1.353037
v -0.806112 0.898064 -1.061564
vt 0.000000 0.000000
vt 1.000000 0.000000
vt 1.000000 1.000000
vn 0.918700 0.242300 0.312000
vn 0.201400 0.687300 -0.697900
vn 0.944600 -0.098900 0.313100
vn 0.958100 -0.267500 -0.102400
vn 0.837400 -0.138500 -0.528800
vn 0.228500 0.680300 -0.696400
vn 0.231200 0.395900 0.888700
vn 0.364700 -0.714000 0.597700
vn 0.667600 -0.497800 -0.553600
vn 0.466900 -0.089800 -0.879800
vn -0.466100 0.870600 0.157700
vn 0.236800 0.000900 0.971600
vn 0.284100 -0.886900 0.364200
vn 0.496400 -0.173400 -0.850600
vn 0.098700 0.336700 -0.936400
vn -0.763500 0.615800 0.194300
vn -0.769300 -0.492900 0.406400
vn -0.441800 -0.894800 0.065200
vn -0.626600 0.147600 -0.765200
vn -0.833900 0.533600 -0.140800
vn -0.471000 0.692200 -0.546800
vn -0.872900 0.461000 -0.159800
vn -0.628200 -0.128200 -0.767400
vn -0.877500 0.114300 -0.465800
vn -0.502400 0.323800 -0.801700
vn -0.491400 -0.831800 -0.258000
vn -0.868600 -0.493300 0.046600
vn -0.533100 -0.821700 0.201400
vn -0.571900 -0.811500 0.120400
vn -0.934900 -0.036700 0.352900
vn -0.960800 0.007500 0.277100
vn -0.793200 0.434400 0.426700
vn -0.566700 0.759700 -0.318900
vn -0.848200 0.407700 -0.338200
vn -0.855300 0.408200 -0.319100
vn -0.890700 0.453700 0.028000
vn -0.860900 0.248100 -0.444100
vn -0.797000 -0.131000 -0.589600
vn 0.109000 0.119600 -0.986800
vn 0.217600 -0.311000 -0.925200
vn 0.121500 -0.564100 -0.816700
vn -0.093600 -0.985700 0.139800
vn -0.076700 -0.963100 0.258100
vn -0.068600 -0.965200 0.252400
vn -0.390700 -0.531500 0.751600
vn -0.242500 0.162200 0.956500
vn -0.386800 0.400100 0.830900
vn -0.507300 0.792500 0.338400
vn -0.392500 0.903200 0.173600
vn -0.682900 0.633800 -0.363300
vn -0.113300 -0.526500 -0.842600
vn 0.372200 -0.372600 -0.850100
vn 0.436400 -0.394800 -0.808500
vn -0.058600 -0.993700 0.095600
vn 0.405900 -0.913600 0.023400
vn 0.364800 -0.878200 0.309500
vn 0.095400 -0.806000 0.584200
vn 0.343300 -0.708100 0.617100
vn 0.428500 -0.233600 0.872800
vn -0.265500 0.677100 0.686300
vn -0.061800 0.682000 0.728700
vn 0.008800 0.836000 0.548700
vn -0.772100 0.626000 0.109200
vn 0.348900 0.771500 -0.532100
vn 0.131500 0.944900 -0.299900
vn 0.677500 0.023500 -0.735100
vn 0.798200 -0.163000 -0.580000
vn 0.761000 -0.260800 -0.594000
vn 0.760100 -0.259300 -0.595900
vn 0.946200 -0.307700 -0.100400
vn 0.686800 -0.589500 0.425300
vn 0.643300 -0.561200 0.520800
vn 0.710900 -0.221700 0.667400
vn 0.679200 -0.189400 0.709100
vn 0.484700 0.762700 -0.428100
vn 0.323700 0.549800 -0.770100
vn 0.860700 0.092400 -0.500700
vn 0.554800 0.211800 0.804600
vn 0.665300 0.521700 0.534100
vn 0.342500 0.797000 0.497500
vn -0.707000 0.201100 -0.678000
vn -0.059200 0.244400 0.967900
vn 0.651900 0.506100 0.564700
vn 0.387900 -0.827600 0.405700
vn 0.512700 -0.474600 0.715400
vn -0.035400 0.194700 0.980200
vn -0.461700 -0.811400 -0.358400
vn 0.109900 -0.916200 -0.385300
vn 0.632000 -0.209700 0.746000
vn 0.939100 0.287900 0.187800
vn -0.975100 -0.121800 0.185200
vn -0.295900 -0.667300 -0.683500
vn 0.568900 -0.505300 0.648900
vn 0.563000 0.133500 0.815600
vn 0.550900 0.684100 0.478100
vn -0.729200 -0.107800 -0.675800
vn -0.146600 -0.167900 -0.974800
vn 0.358400 0.923700 0.135100
vn 0.198000 0.919600 0.339200
vn -0.171100 0.980800 0.093500
vn -0.002500 0.973100 0.230400
vn -0.103400 0.993200 0.053600
vn 0.333000 0.924100 0.187500
vn 0.043000 0.966000 -0.255100
vn 0.200700 0.957700 0.206000
vn 0.412700 0.852700 -0.320300
vn -0.071900 0.685100 -0.724900
vn -0.005900 0.230400 -0.973100
vn -0.014300 0.177600 -0.984000
vn -0.483500 -0.036800 -0.874600
vn -0.433300 -0.430700 -0.791700
vn -0.414900 -0.350000 -0.839800
vn -0.954200 0.100600 -0.281900
vn -0.531200 0.719900 -0.446600
vn -0.235100 0.970700 0.050500
vn -0.157000 0.978500 0.133700
vn 0.733100 -0.107800 0.671500
vn 0.632900 0.281800 0.721200
vn 0.358100 0.382500 0.851700
vn 0.505600 -0.117200 0.854700
vn 0.361200 0.120700 0.924600
vn 0.740500 -0.009600 0.672000
vn 0.662800 0.116600 0.739700
vn 0.068900 -0.242200 -0.967800
vn -0.151700 -0.345800 -0.926000
vn -0.395300 -0.244300 -0.885500
vn -0.424100 -0.176500 -0.888300
vn -0.664600 0.194000 -0.721600
vn -0.840300 0.540800 0.039100
vn -0.467500 0.858500 0.210900
vn 0.656000 0.174600 0.734300
vn 0.656300 0.213900 0.723600
vn 0.673000 0.134800 0.727200
vn 0.346900 0.162000 0.923800
vn 0.351100 0.216700 0.910900
vn 0.418000 -0.180100 0.890400
vn -0.062200 -0.526400 -0.848000
vn -0.039100 -0.736800 -0.674900
vn -0.121800 -0.799200 -0.588600
vn -0.627300 -0.176900 -0.758500
vn -0.514200 -0.774400 -0.368700
vn -0.547700 -0.831600 -0.092100
vn -0.616200 0.783600 0.078400
vn -0.232300 -0.018400 0.972500
vn -0.707600 0.030800 0.705900
vn 0.931400 -0.085700 0.353800
vn 0.647300 0.350900 0.676600
vn 0.649800 0.372300 0.662600
vn 0.833400 -0.078900 0.547000
vn 0.597000 -0.723900 0.345700
vn 0.417700 0.205800 0.885000
vn 0.126500 -0.990600 -0.051300
vn -0.433200 0.821200 -0.371500
vn -0.021600 -0.982800 -0.183600
vn -0.506000 -0.323500 0.799600
vn -0.004100 0.257600 0.966200
vn 0.627400 -0.380700 0.679300
vn -0.336500 -0.916100 -0.218000
vn -0.343100 -0.931500 -0.120700
vn -0.654100 -0.729900 -0.198500
usemtl Material
s off
f 1/1/1 14/2/1 13/3/1
f 2/1/2 14/2/2 16/3/2
f 1/1/3 13/2/3 18/3/3
f 1/1/4 18/2/4 20/3/4
f 1/1/5 20/2/5 17/3/5
f 2/1/6 16/2/6 23/3/6
f 3/1/7 15/2/7 25/3/7
f 4/1/8 19/2/8 27/3/8
f 5/1/9 21/2/9 29/3/9
f 6/1/10 22/2/10 31/3/10
f 2/1/11 23/2/11 26/3/11
f 3/1/12 25/2/12 28/3/12
f 4/1/13 27/2/13 30/3/13
f 5/1/14 29/2/14 32/3/14
f 6/1/15 31/2/15 24/3/15
f 7/1/16 33/2/16 38/3/16
f 8/1/17 34/2/17 40/3/17
f 9/1/18 35/2/18 41/3/18
f 10/1/19 36/2/19 42/3/19
f 11/1/20 37/2/20 39/3/20
f 39/1/21 42/2/21 12/3/21
f 39/1/22 37/2/22 42/3/22
f 37/1/23 10/2/23 42/3/23
f 42/1/24 41/2/24 12/3/24
f 42/1/25 36/2/25 41/3/25
f 36/1/26 9/2/26 41/3/26
f 41/1/27 40/2/27 12/3/27
f 41/1/28 35/2/28 40/3/28
f 35/1/29 8/2/29 40/3/29
f 40/1/30 38/2/30 12/3/30
f 40/1/31 34/2/31 38/3/31
f 34/1/32 7/2/32 38/3/32
f 38/1/33 39/2/33 12/3/33
f 38/1/34 33/2/34 39/3/34
f 33/1/35 11/2/35 39/3/35
f 24/1/36 37/2/36 11/3/36
f 24/1/37 31/2/37 37/3/37
f 31/1/38 10/2/38 37/3/38
f 32/1/39 36/2/39 10/3/39
f 32/1/40 29/2/40 36/3/40
f 29/1/41 9/2/41 36/3/41
f 30/1/42 35/2/42 9/3/42
f 30/1/43 27/2/43 35/3/43
f 27/1/44 8/2/44 35/3/44
f 28/1/45 34/2/45 8/3/45
f 28/1/46 25/2/46 34/3/46
f 25/1/47 7/2/47 34/3/47
f 26/1/48 33/2/48 7/3/48
f 26/1/49 23/2/49 33/3/49
f 23/1/50 11/2/50 33/3/50
f 31/1/51 32/2/51 10/3/51
f 31/1/52 22/2/52 32/3/52
f 22/1/53 5/2/53 32/3/53
f 29/1/54 30/2/54 9/3/54
f 29/1/55 21/2/55 30/3/55
f 21/1/56 4/2/56 30/3/56
f 27/1/57 28/2/57 8/3/57
f 27/1/58 19/2/58 28/3/58
f 19/1/59 3/2/59 28/3/59
f 25/1/60 26/2/60 7/3/60
f 25/1/61 15/2/61 26/3/61
f 15/1/62 2/2/62 26/3/62
f 23/1/63 24/2/63 11/3/63
f 23/1/64 16/2/64 24/3/64
f 16/1/65 6/2/65 24/3/65
f 17/1/66 22/2/66 6/3/66
f 17/1/67 20/2/67 22/3/67
f 20/1/68 5/2/68 22/3/68
f 20/1/69 21/2/69 5/3/69
f 20/1/70 18/2/70 21/3/70
f 18/1/71 4/2/71 21/3/71
f 18/1/72 19/2/72 4/3/72
f 18/1/73 13/2/73 19/3/73
f 13/1/74 3/2/74 19/3/74
f 16/1/75 17/2/75 6/3/75
f 16/1/76 14/2/76 17/3/76
f 14/1/77 1/2/77 17/3/77
f 13/1/78 15/2/78 3/3/78
f 13/1/79 14/2/79 15/3/79
f 14/1/80 2/2/80 15/3/80
f 43/1/81 56/2/81 55/3/81
f 44/1/82 56/2/82 58/3/82
f 43/1/83 55/2/83 60/3/83
f 43/1/84 60/2/84 62/3/84
f 43/1/85 62/2/85 59/3/85
f 44/1/86 58/2/86 65/3/86
f 45/1/87 57/2/87 67/3/87
f 46/1/88 61/2/88 69/3/88
f 47/1/89 63/2/89 71/3/89
f 48/1/90 64/2/90 73/3/90
f 44/1/91 65/2/91 68/3/91
f 45/1/92 67/2/92 70/3/92
f 46/1/93 69/2/93 72/3/93
f 47/1/94 71/2/94 74/3/94
f 48/1/95 73/2/95 66/3/95
f 49/1/96 75/2/96 80/3/96
f 50/1/97 76/2/97 82/3/97
f 51/1/98 77/2/98 83/3/98
f 52/1/99 78/2/99 84/3/99
f 53/1/100 79/2/100 81/3/100
f 81/1/101 84/2/101 54/3/101
f 81/1/102 79/2/102 84/3/102
f 79/1/103 52/2/103 84/3/103
f 84/1/104 83/2/104 54/3/104
f 84/1/105 78/2/105 83/3/105
f 78/1/106 51/2/106 83/3/106
f 83/1/107 82/2/107 54/3/107
f 83/1/108 77/2/108 82/3/108
f 77/1/109 50/2/109 82/3/109
f 82/1/110 80/2/110 54/3/110
f 82/1/111 76/2/111 80/3/111
f 76/1/112 49/2/112 80/3/112
f 80/1/113 81/2/113 54/3/113
f 80/1/114 75/2/114 81/3/114
f 75/1/115 53/2/115 81/3/115
f 66/1/116 79/2/116 53/3/116
f 66/1/117 73/2/117 79/3/117
f 73/1/118 52/2/118 79/3/118
f 74/1/119 78/2/119 52/3/119
f 74/1/120 71/2/120 78/3/120
f 71/1/121 51/2/121 78/3/121
f 72/1/122 77/2/122 51/3/122
f 72/1/123 69/2/123 77/3/123
f 69/1/124 50/2/124 77/3/124
f 70/1/125 76/2/125 50/3/125
f 70/1/126 67/2/126 76/3/126
f 67/1/127 49/2/127 76/3/127
f 68/1/128 75/2/128 49/3/128
f 68/1/129 65/2/129 75/3/129
f 65/1/130 53/2/130 75/3/130
f 73/1/131 74/2/131 52/3/131
f 73/1/132 64/2/132 74/3/132
f 64/1/133 47/2/133 74/3/133
f 71/1/134 72/2/134 51/3/134
f 71/1/135 63/2/135 72/3/135
f 63/1/136 46/2/136 72/3/136
f 69/1/137 70/2/137 50/3/137
f 69/1/138 61/2/138 70/3/138
f 61/1/139 45/2/139 70/3/139
f 67/1/140 68/2/140 49/3/140
f 67/1/141 57/2/141 68/3/141
f 57/1/142 44/2/142 68/3/142
f 65/1/143 66/2/143 53/3/143
f 65/1/144 58/2/144 66/3/144
f 58/1/145 48/2/145 66/3/145
f 59/1/146 64/2/146 48/3/146
f 59/1/147 62/2/147 64/3/147
f 62/1/148 47/2/148 64/3/148
f 62/1/149 63/2/149 47/3/149
f 62/1/150 60/2/150 63/3/150
f 60/1/151 46/2/151 63/3/151
f 60/1/152 61/2/152 46/3/152
f 60/1/153 55/2/153 61/3/153
f 55/1/154 45/2/154 61/3/154
f 58/1/155 59/2/155 48/3/155
f 58/1/156 56/2/156 59/3/156
f 56/1/157 43/2/157 59/3/157
f 55/1/158 57/2/158 45/3/158
f 55/1/159 56/2/159 57/3/159
f 56/1/160 44/2/160 57/3/160
