# Blender v2.75 (sub 0) OBJ File: 'Rock1.blend'
# www.blender.org
mtllib rock4.mtl
o Icosphere.001
v -0.860312 -0.025596 0.022333
v -0.893942 0.148016 0.015630
v -0.720036 0.025221 -0.018808
v -0.754007 -0.022906 -0.082833
v -0.726253 0.032764 -0.049775
v -0.735084 -0.023753 0.022118
v -0.816864 0.058442 0.112527
v -0.900809 -0.024938 0.174708
v -0.945002 0.062084 0.132539
v -0.951088 0.026747 -0.080119
v -0.997586 -0.024895 0.046804
v -0.902735 -0.024885 -0.103552
v -0.883637 0.009229 -0.117731
v -0.829471 0.027410 -0.118782
v -0.887765 0.066359 0.140916
v -0.969819 0.077118 -0.029121
v -0.878635 0.082461 -0.102149
v -0.741185 0.080121 -0.041504
v -0.864631 0.142936 0.050390
v -0.846900 0.113727 0.089801
v -0.760396 0.107880 -0.024230
v -0.827241 0.144005 -0.026734
v -0.926396 0.117966 0.082183
v -0.930999 0.109164 -0.052497
v -0.812001 0.108685 -0.076044
v -0.873886 0.125200 -0.063797
v -0.955388 0.114362 0.027240
v -0.785917 0.126954 0.019281
v -0.792154 0.062150 -0.099868
v -0.902649 0.048584 -0.109083
v -0.989085 0.067335 0.023006
v -1.000130 0.009495 0.067255
v -0.986200 0.059074 0.080348
v -0.883440 0.004858 0.171079
v -0.745745 0.071586 0.022832
v -0.819315 -0.030319 -0.108141
v -0.986363 0.020643 -0.029879
v -0.970045 -0.030311 -0.043121
v -0.959179 0.011211 0.145323
v -0.969052 -0.030291 0.132026
v -0.818210 -0.029263 0.139917
v -0.724638 -0.030172 -0.026669
v 0.000001 -0.048053 0.111667
v -0.168147 0.820009 0.078152
v 0.701381 0.206034 -0.094042
v 0.531525 -0.034601 -0.414165
v 0.670298 0.243750 -0.248876
v 0.626144 -0.038837 0.110592
v 0.217244 0.372141 0.562636
v -0.202485 -0.044762 0.873541
v -0.423447 0.390348 0.662697
v -0.453878 0.213664 -0.400593
v -0.686371 -0.044546 0.234019
v -0.212113 -0.044496 -0.517758
v -0.116625 0.126074 -0.588655
v 0.154206 0.216981 -0.593912
v -0.137265 0.411723 0.704578
v -0.547535 0.465521 -0.145605
v -0.091613 0.492232 -0.510746
v 0.595635 0.480536 -0.207519
v -0.021592 0.794608 0.251948
v 0.067060 0.648564 0.449004
v 0.499580 0.619329 -0.121148
v 0.165354 0.799954 -0.133672
v -0.330417 0.669760 0.410915
v -0.353433 0.625747 -0.262487
v 0.241556 0.623355 -0.380219
v -0.067867 0.705929 -0.318983
v -0.475377 0.651739 0.136201
v 0.371976 0.714697 0.096403
v 0.340793 0.390679 -0.499342
v -0.211685 0.322849 -0.545416
v -0.643865 0.416604 0.115029
v -0.699088 0.127403 0.336277
v -0.629437 0.375296 0.401742
v -0.115637 0.104217 0.855393
v 0.572835 0.437861 0.114161
v 0.204987 -0.071665 -0.540707
v -0.630251 0.183143 -0.149393
v -0.548665 -0.071627 -0.215603
v -0.494333 0.135982 0.726615
v -0.543699 -0.071527 0.660129
v 0.210510 -0.066388 0.699586
v 0.678372 -0.070930 -0.133346
vt 0.000000 0.000000
vt 1.000000 0.000000
vt 1.000000 1.000000
vn 0.139500 0.497700 -0.856000
vn 0.475900 0.873400 -0.103700
vn 0.442000 0.788300 -0.428000
vn 0.524100 0.681000 -0.511400
vn 0.534700 0.554500 -0.637700
vn 0.109800 0.823800 -0.556100
vn -0.137300 0.942300 -0.305300
vn -0.315500 0.887900 -0.334700
vn 0.030100 0.665700 -0.745600
vn -0.319200 0.652300 -0.687400
vn -0.499800 0.840900 -0.207700
vn -0.446600 0.876800 0.178100
vn -0.702700 0.663000 -0.258200
vn -0.791300 0.583500 -0.182900
vn -0.811900 0.570700 0.123100
vn -0.671800 0.672500 0.310400
vn -0.629800 0.625200 0.461100
vn -0.212300 0.925300 0.314300
vn -0.014800 0.800100 0.599700
vn -0.155000 0.689300 0.707700
vn -0.024500 0.742900 0.668900
vn 0.098900 0.993200 0.061700
vn 0.345900 0.821500 0.453200
vn 0.247500 0.959700 0.133300
vn 0.573000 0.558100 0.600200
vn 0.640400 0.501900 0.581300
vn 0.785900 0.583400 0.205200
vn 0.851000 0.509400 0.127900
vn 0.636800 0.133500 -0.759400
vn 0.659900 0.326300 -0.676800
vn 0.113100 0.378600 -0.918600
vn -0.078600 0.177600 -0.981000
vn -0.058900 0.240100 -0.969000
vn -0.462100 0.480200 -0.745600
vn -0.500900 -0.077900 -0.862000
vn -0.496200 -0.049200 -0.866800
vn -0.595000 0.382000 -0.707100
vn -0.685700 0.376000 -0.623300
vn -0.990200 0.009600 -0.139200
vn -0.917900 0.272800 -0.288100
vn -0.987500 0.089300 -0.129700
vn -0.964900 0.248800 0.084400
vn -0.288000 0.279500 0.915900
vn -0.283200 0.307200 0.908500
vn -0.162100 0.425300 0.890400
vn 0.376600 0.429100 0.821000
vn 0.367300 0.517300 0.773000
vn 0.756800 0.184200 0.627100
vn 0.812100 0.086500 0.577100
vn 0.891300 0.096400 0.443000
vn 0.909500 0.398900 0.117400
vn 0.439300 0.017100 -0.898200
vn 0.369700 -0.105100 -0.923200
vn 0.039400 -0.174400 -0.983900
vn -0.074000 -0.347100 -0.934900
vn -0.807400 0.243700 -0.537300
vn -0.632900 -0.262100 -0.728500
vn -0.807400 -0.107800 -0.580000
vn -0.934600 -0.228500 -0.272500
vn -0.879600 0.126000 0.458600
vn -0.924300 -0.243300 0.294100
vn -0.744900 0.350300 0.567800
vn -0.884400 0.062200 0.462600
vn -0.516100 -0.147500 0.843700
vn 0.520000 0.247300 0.817600
vn 0.380900 -0.110200 0.918000
vn 0.941900 0.316600 -0.112000
vn 0.968600 -0.112000 0.222100
vn 0.976600 -0.051500 -0.208600
vn 0.867700 -0.151500 -0.473400
vn 0.088200 -0.994100 0.063700
vn -0.064100 -0.997800 0.016000
vn 0.057900 -0.998000 -0.025100
vn 0.005900 -0.998100 0.061900
vn -0.015400 -0.998200 -0.058000
vn 0.064800 -0.997700 0.021500
vn -0.056800 -0.998300 -0.010800
vn 0.014600 -0.999200 -0.036400
vn 0.014800 -0.990900 0.133500
vn -0.067200 -0.993400 -0.093400
vn -0.629800 0.625100 0.461100
vn -0.924300 -0.243200 0.294100
usemtl Material.002
s off
f 29/1/1 17/2/1 25/3/1
f 28/1/2 21/2/2 22/3/2
f 21/1/3 25/2/3 22/3/3
f 21/1/4 18/2/4 25/3/4
f 18/1/5 29/2/5 25/3/5
f 25/1/6 26/2/6 22/3/6
f 22/1/7 26/2/7 2/3/7
f 26/1/8 24/2/8 2/3/8
f 25/1/9 17/2/9 26/3/9
f 26/1/10 17/2/10 24/3/10
f 24/1/11 27/2/11 2/3/11
f 2/1/12 27/2/12 23/3/12
f 24/1/13 16/2/13 27/3/13
f 16/1/14 31/2/14 27/3/14
f 31/1/15 33/2/15 27/3/15
f 27/1/16 33/2/16 23/3/16
f 33/1/17 9/2/17 23/3/17
f 23/1/18 19/2/18 2/3/18
f 23/1/19 20/2/19 19/3/19
f 9/1/20 15/2/20 23/3/20
f 23/1/21 15/2/21 20/3/21
f 19/1/22 22/2/22 2/3/22
f 20/1/23 28/2/23 19/3/23
f 19/1/24 28/2/24 22/3/24
f 20/1/25 7/2/25 28/3/25
f 7/1/26 35/2/26 28/3/26
f 28/1/27 35/2/27 21/3/27
f 35/1/28 18/2/28 21/3/28
f 4/1/29 29/2/29 5/3/29
f 5/1/30 29/2/30 18/3/30
f 14/1/31 17/2/31 29/3/31
f 13/1/32 30/2/32 14/3/32
f 14/1/33 30/2/33 17/3/33
f 30/1/34 24/2/34 17/3/34
f 12/1/35 10/2/35 13/3/35
f 13/1/36 10/2/36 30/3/36
f 30/1/37 10/2/37 24/3/37
f 10/1/38 16/2/38 24/3/38
f 11/1/39 32/2/39 37/3/39
f 37/1/40 31/2/40 16/3/40
f 37/1/41 32/2/41 31/3/41
f 32/1/42 33/2/42 31/3/42
f 8/1/43 34/2/43 39/3/43
f 39/1/44 34/2/44 9/3/44
f 34/1/45 15/2/45 9/3/45
f 34/1/46 7/2/46 15/3/46
f 15/1/47 7/2/47 20/3/47
f 41/1/48 35/2/48 7/3/48
f 41/1/49 6/2/49 35/3/49
f 6/1/50 3/2/50 35/3/50
f 3/1/51 18/2/51 35/3/51
f 4/1/52 14/2/52 29/3/52
f 4/1/53 36/2/53 14/3/53
f 14/1/54 36/2/54 13/3/54
f 36/1/55 12/2/55 13/3/55
f 10/1/56 37/2/56 16/3/56
f 12/1/57 38/2/57 10/3/57
f 10/1/58 38/2/58 37/3/58
f 38/1/59 11/2/59 37/3/59
f 32/1/60 39/2/60 33/3/60
f 11/1/61 40/2/61 32/3/61
f 33/1/62 39/2/62 9/3/62
f 32/1/63 40/2/63 39/3/63
f 40/1/64 8/2/64 39/3/64
f 34/1/65 41/2/65 7/3/65
f 8/1/66 41/2/66 34/3/66
f 3/1/67 5/2/67 18/3/67
f 6/1/68 42/2/68 3/3/68
f 3/1/69 42/2/69 5/3/69
f 42/1/70 4/2/70 5/3/70
f 4/1/71 1/2/71 36/3/71
f 36/1/72 1/2/72 12/3/72
f 12/1/73 1/2/73 38/3/73
f 38/1/74 1/2/74 11/3/74
f 11/1/75 1/2/75 40/3/75
f 40/1/76 1/2/76 8/3/76
f 8/1/77 1/2/77 41/3/77
f 41/1/78 1/2/78 6/3/78
f 6/1/79 1/2/79 42/3/79
f 42/1/80 1/2/80 4/3/80
f 71/1/1 59/2/1 67/3/1
f 70/1/2 63/2/2 64/3/2
f 63/1/3 67/2/3 64/3/3
f 63/1/4 60/2/4 67/3/4
f 60/1/5 71/2/5 67/3/5
f 67/1/6 68/2/6 64/3/6
f 64/1/7 68/2/7 44/3/7
f 68/1/8 66/2/8 44/3/8
f 67/1/9 59/2/9 68/3/9
f 68/1/10 59/2/10 66/3/10
f 66/1/11 69/2/11 44/3/11
f 44/1/12 69/2/12 65/3/12
f 66/1/13 58/2/13 69/3/13
f 58/1/14 73/2/14 69/3/14
f 73/1/15 75/2/15 69/3/15
f 69/1/16 75/2/16 65/3/16
f 75/1/81 51/2/81 65/3/81
f 65/1/18 61/2/18 44/3/18
f 65/1/19 62/2/19 61/3/19
f 51/1/20 57/2/20 65/3/20
f 65/1/21 57/2/21 62/3/21
f 61/1/22 64/2/22 44/3/22
f 62/1/23 70/2/23 61/3/23
f 61/1/24 70/2/24 64/3/24
f 62/1/25 49/2/25 70/3/25
f 49/1/26 77/2/26 70/3/26
f 70/1/27 77/2/27 63/3/27
f 77/1/28 60/2/28 63/3/28
f 46/1/29 71/2/29 47/3/29
f 47/1/30 71/2/30 60/3/30
f 56/1/31 59/2/31 71/3/31
f 55/1/32 72/2/32 56/3/32
f 56/1/33 72/2/33 59/3/33
f 72/1/34 66/2/34 59/3/34
f 54/1/35 52/2/35 55/3/35
f 55/1/36 52/2/36 72/3/36
f 72/1/37 52/2/37 66/3/37
f 52/1/38 58/2/38 66/3/38
f 53/1/39 74/2/39 79/3/39
f 79/1/40 73/2/40 58/3/40
f 79/1/41 74/2/41 73/3/41
f 74/1/42 75/2/42 73/3/42
f 50/1/43 76/2/43 81/3/43
f 81/1/44 76/2/44 51/3/44
f 76/1/45 57/2/45 51/3/45
f 76/1/46 49/2/46 57/3/46
f 57/1/47 49/2/47 62/3/47
f 83/1/48 77/2/48 49/3/48
f 83/1/49 48/2/49 77/3/49
f 48/1/50 45/2/50 77/3/50
f 45/1/51 60/2/51 77/3/51
f 46/1/52 56/2/52 71/3/52
f 46/1/53 78/2/53 56/3/53
f 56/1/54 78/2/54 55/3/54
f 78/1/55 54/2/55 55/3/55
f 52/1/56 79/2/56 58/3/56
f 54/1/57 80/2/57 52/3/57
f 52/1/58 80/2/58 79/3/58
f 80/1/59 53/2/59 79/3/59
f 74/1/60 81/2/60 75/3/60
f 53/1/82 82/2/82 74/3/82
f 75/1/62 81/2/62 51/3/62
f 74/1/63 82/2/63 81/3/63
f 82/1/64 50/2/64 81/3/64
f 76/1/65 83/2/65 49/3/65
f 50/1/66 83/2/66 76/3/66
f 45/1/67 47/2/67 60/3/67
f 48/1/68 84/2/68 45/3/68
f 45/1/69 84/2/69 47/3/69
f 84/1/70 46/2/70 47/3/70
f 46/1/71 43/2/71 78/3/71
f 78/1/72 43/2/72 54/3/72
f 54/1/73 43/2/73 80/3/73
f 80/1/74 43/2/74 53/3/74
f 53/1/75 43/2/75 82/3/75
f 82/1/76 43/2/76 50/3/76
f 50/1/77 43/2/77 83/3/77
f 83/1/78 43/2/78 48/3/78
f 48/1/79 43/2/79 84/3/79
f 84/1/80 43/2/80 46/3/80
