# Blender v2.75 (sub 0) OBJ File: 'Bed.blend'
# www.blender.org
mtllib Bed.mtl
o Cube.001
v -0.391374 0.718005 -0.632254
v -0.391374 0.958642 -0.632254
v -0.402419 0.715984 -1.185326
v -0.402419 0.960663 -1.185326
v 0.924056 0.718005 -0.632254
v 0.924056 0.958642 -0.632254
v 0.935101 0.715984 -1.185326
v 0.935101 0.960663 -1.185326
v -0.437404 0.967063 -1.123350
v -0.437404 0.709584 -1.123350
v 0.970086 0.967063 -1.123350
v 0.970086 0.709584 -1.123350
v -0.437404 0.709584 -0.672120
v 0.970086 0.967063 -0.672120
v -0.437404 0.967063 -0.672120
v 0.970086 0.709584 -0.672120
vt 0.054687 0.937860
vt 0.066047 0.937860
vt 0.066047 0.960578
vt 0.054687 0.960578
vt 0.043328 0.937860
vt 0.043328 0.960578
vt 0.060367 0.937860
vt 0.060367 0.960578
vt 0.049008 0.937860
vt 0.049008 0.960578
vn -0.870800 0.000000 -0.491600
vn 0.000000 0.000000 -1.000000
vn 0.654700 0.000000 0.755900
vn 0.000000 0.000000 1.000000
vn 0.000000 -0.994700 -0.102700
vn 0.000000 0.994700 -0.102700
vn 0.000000 1.000000 0.000000
vn 0.000000 -1.000000 0.000000
vn 0.870800 0.000000 -0.491600
vn -1.000000 0.000000 0.000000
vn -0.654700 0.000000 0.755900
vn 0.000000 -0.978400 0.206700
vn 0.000000 0.978400 0.206700
vn 1.000000 0.000000 0.000000
usemtl Material.002
s off
f 9/1/1 4/2/1 3/3/1 10/4/1
f 4/5/2 8/2/2 7/3/2 3/6/2
f 14/7/3 6/2/3 5/3/3 16/8/3
f 6/5/4 2/2/4 1/3/4 5/6/4
f 10/1/5 3/2/5 7/3/5 12/4/5
f 11/1/6 8/2/6 4/3/6 9/4/6
f 14/9/7 11/1/7 9/4/7 15/10/7
f 13/9/8 10/1/8 12/4/8 16/10/8
f 8/5/9 11/1/9 12/4/9 7/6/9
f 15/9/10 9/1/10 10/4/10 13/10/10
f 2/5/11 15/9/11 13/10/11 1/6/11
f 1/5/12 13/9/12 16/10/12 5/6/12
f 6/5/13 14/9/13 15/10/13 2/6/13
f 11/1/14 14/7/14 16/8/14 12/4/14
o Cube.000_Cube.008
v 1.166971 0.381998 -1.240820
v 1.166971 0.381998 2.028561
v 1.166971 0.045178 2.028561
v 1.166971 0.045178 -1.240820
v -0.394006 0.381998 -1.240820
v -0.394006 0.045178 -1.240820
v 1.129231 0.381998 -1.202407
v 1.129231 0.381998 -0.365015
v 1.123072 0.381998 -0.365015
v 1.123072 0.381998 1.986319
v -0.394006 0.381998 2.028561
v -0.394006 0.045178 2.028561
v 1.116863 0.045178 -1.221904
v 1.116863 0.045178 1.835772
v 0.946999 0.045178 -1.052041
v 1.116863 0.045178 -1.052041
v -0.569681 0.381998 -1.240820
v -0.569681 0.045178 -1.240820
v -0.374037 0.381998 -1.218588
v 1.129231 0.381998 -1.218588
v 0.946999 0.045178 -1.221904
v -0.363145 0.045178 -1.221904
v -0.533009 0.045178 -1.221904
v -0.533009 0.045178 -1.052041
v -0.569681 0.045178 2.028561
v -0.353873 0.381998 1.986320
v 1.123072 0.695271 -0.365015
v 1.123072 0.695271 1.986319
v -0.569681 0.381998 2.028561
v -0.443062 0.045178 2.005635
v -0.363145 0.045178 2.005635
v -0.363145 0.045178 1.991166
v 0.947000 0.045178 1.835772
v 0.947000 0.045178 2.005635
v 1.116863 0.045178 2.005635
v 1.116863 -0.148489 -1.052041
v 1.116863 -0.148489 -1.221904
v -0.363145 0.045178 -1.052041
v -0.363145 0.045178 1.835772
v -0.533009 0.045178 1.835772
v -0.533009 0.045178 2.005635
v 0.946999 -0.148489 -1.052041
v -0.542116 0.381998 -1.218588
v 0.946999 -0.148489 -1.221904
v -0.363145 -0.148489 -1.221904
v -0.533009 -0.148489 -1.221904
v -0.533009 -0.148489 -1.052041
v -0.514279 0.381998 1.986320
v -0.353873 0.695271 1.986320
v -0.353873 0.695271 -0.365015
v 1.116863 -0.148489 2.005635
v 1.116863 -0.148489 1.835772
v -0.533009 -0.148489 2.005635
v -0.363145 -0.148489 2.005635
v 0.947000 -0.148489 1.835772
v 0.947000 -0.148489 2.005635
v -0.363145 -0.148489 -1.052041
v -0.363145 -0.148489 1.835772
v -0.533009 -0.148489 1.835772
v -0.514279 0.381998 -0.365015
v -0.552884 0.381998 -0.365015
v -0.552884 0.381998 -1.218588
v -0.514279 0.695271 1.986320
v -0.514279 0.695271 -0.365015
v -0.552884 0.735533 -0.365015
v -0.552884 0.735533 -1.218588
v 1.129231 0.735533 -0.365015
v 1.129231 0.735533 -1.218588
vt 0.048651 0.064276
vt 0.052912 0.064276
vt 0.052912 0.068537
vt 0.048651 0.068537
vt 0.052912 0.067939
vt 0.051795 0.067939
vt 0.051799 0.068537
vt 0.050781 0.068537
vt 0.052626 0.067471
vt 0.052626 0.065341
vt 0.050781 0.064276
vt 0.048936 0.065341
vt 0.048936 0.067471
vt 0.052912 0.066396
vt 0.048695 0.066396
vt 0.048651 0.067939
vt 0.052151 0.068038
vt 0.052879 0.066776
vt 0.051510 0.064404
vt 0.050053 0.064404
vt 0.048683 0.066776
vt 0.049412 0.068038
vt 0.905486 0.916734
vt 0.895766 0.916734
vt 0.895766 0.903579
vt 0.905486 0.903579
vt 0.052033 0.068130
vt 0.052807 0.067065
vt 0.052807 0.065748
vt 0.052033 0.064683
vt 0.049529 0.064683
vt 0.048755 0.065748
vt 0.048755 0.067065
vt 0.049529 0.068130
vt 0.051771 0.068293
vt 0.052535 0.067616
vt 0.052896 0.066663
vt 0.052194 0.064812
vt 0.051291 0.064338
vt 0.050271 0.064338
vt 0.049369 0.064812
vt 0.048666 0.066663
vt 0.049028 0.067616
vt 0.049791 0.068293
vt 0.908921 0.903579
vt 0.908921 0.916734
vt 0.899202 0.903579
vt 0.899202 0.916734
vt 0.049764 0.068537
vt 0.049784 0.065568
vt 0.048662 0.065568
vt 0.043174 0.953514
vt 0.042750 0.954345
vt 0.041930 0.954200
vt 0.042164 0.953437
vt 0.037772 0.952941
vt 0.040104 0.952932
vt 0.040127 0.953102
vt 0.039846 0.952944
vt 0.037773 0.952959
vt 0.037751 0.953103
vt 0.037744 0.953103
vt 0.042384 0.952578
vt 0.041769 0.953220
vt 0.041897 0.952950
vt 0.042624 0.953483
vt 0.038021 0.952932
vt 0.040353 0.952941
vt 0.040381 0.953103
vt 0.038237 0.953101
vt 0.038012 0.953102
vt 0.036195 0.954200
vt 0.035375 0.954345
vt 0.034951 0.953514
vt 0.035946 0.953438
vt 0.035961 0.953437
vn 1.000000 0.000000 -0.000000
vn -0.000000 0.000000 -1.000000
vn 0.000000 1.000000 -0.000000
vn 0.000000 0.000000 1.000000
vn 0.000000 -1.000000 0.000000
vn -1.000000 0.000000 0.000000
usemtl Material.001
s off
f 17/11/15 18/12/15 19/13/15 20/14/15
f 21/11/16 17/12/16 20/13/16 22/14/16
f 18/11/17 17/12/17 23/15/17 24/16/17 25/17/17 26/14/17
f 18/11/18 27/12/18 28/13/18 19/14/18
f 29/18/19 20/19/19 19/20/19 30/21/19 31/22/19 32/23/19
f 33/11/16 21/12/16 22/13/16 34/14/16
f 17/11/17 21/12/17 35/24/17 36/25/17 23/26/17
f 20/18/19 29/27/19 37/28/19 38/20/19 39/29/19 40/30/19 41/22/19 34/31/19 22/32/19
f 27/11/17 18/12/17 26/13/17 42/14/17
f 43/33/15 44/34/15 26/35/15 25/36/15
f 27/11/18 45/12/18 41/13/18 28/14/18
f 30/18/19 19/37/19 28/38/19 41/39/19 46/40/19 47/21/19 48/41/19 49/42/19 50/43/19 51/44/19
f 32/11/15 52/12/15 53/13/15 29/14/15
f 41/18/19 40/45/19 54/46/19 38/47/19 37/39/19 31/48/19 30/49/19 49/50/19 48/51/19 55/42/19 56/52/19 57/53/19 46/54/19
f 31/11/18 58/12/18 52/13/18 32/14/18
f 45/11/20 33/12/20 34/13/20 41/14/20
f 35/25/17 21/11/17 33/12/17 59/24/17
f 29/11/16 53/12/16 60/13/16 37/14/16
f 38/11/16 61/12/16 62/13/16 39/14/16
f 39/11/20 62/12/20 63/13/20 40/14/20
f 45/11/17 27/12/17 42/13/17 64/14/17
f 42/35/18 26/55/18 44/56/18 65/34/18
f 66/57/17 65/55/17 44/56/17 43/58/17
f 51/11/15 67/12/15 68/13/15 30/14/15
f 57/18/18 69/38/18 70/40/18 47/41/18 46/43/18
f 49/11/20 71/12/20 72/13/20 50/14/20
f 50/11/18 72/12/18 67/13/18 51/14/18
f 53/11/19 52/12/19 58/13/19 60/14/19
f 40/11/18 63/12/18 73/13/18 54/14/18
f 54/11/15 73/12/15 61/13/15 38/14/15
f 37/11/20 60/12/20 58/13/20 31/14/20
f 30/11/16 68/12/16 71/13/16 49/14/16
f 55/11/16 74/12/16 75/13/16 56/14/16
f 56/11/20 75/12/20 69/13/20 57/14/20
f 33/11/17 45/12/17 64/13/17 76/59/17 77/60/17 78/61/17 59/25/17
f 61/11/19 73/12/19 63/13/19 62/14/19
f 64/35/18 42/55/18 65/56/18 79/34/18
f 80/57/17 79/55/17 65/56/17 66/58/17
f 68/11/19 67/12/19 72/13/19 71/14/19
f 74/11/19 70/12/19 69/13/19 75/14/19
f 55/41/15 48/43/15 47/18/15 70/38/15 74/40/15
f 76/57/20 64/55/20 79/56/20 80/58/20
f 77/62/20 81/63/20 82/64/20 78/65/20
f 83/66/18 81/67/18 77/68/18 76/68/18 80/67/18 66/69/18 43/70/18 25/71/18 24/72/18
f 83/73/17 84/74/17 82/75/17 81/76/17
f 82/77/16 84/78/16 36/79/16 35/80/16 59/81/16 78/81/16
f 84/82/15 83/83/15 24/84/15 23/85/15 36/86/15
