# Blender v2.75 (sub 0) OBJ File: 'Couch.blend'
# www.blender.org
mtllib Couch.mtl
o Cube_Cube.015
v 2.726139 0.129782 -0.693764
v 2.726139 0.129782 -1.000000
v 2.726139 1.198278 -1.000000
v 2.726139 1.198278 -0.693764
v 2.726139 0.129782 1.000000
v 2.726139 1.198278 1.000000
v 2.726139 -0.129782 -0.693764
v 2.726139 -0.129782 -1.000000
v 2.326139 0.129782 -1.000000
v 2.326139 1.198278 -1.000000
v 2.326139 1.198278 -0.693764
v 2.326139 0.129782 1.000000
v 2.326139 1.198278 1.000000
v 2.726139 -0.129782 1.000000
v 2.326139 -0.129782 -1.000000
v 2.726139 -0.293926 -0.693764
v 2.726139 -0.293926 -1.000000
v 2.326139 0.129782 -0.693764
v 2.326139 -0.129782 1.000000
v 2.726139 -0.293926 1.000000
v 2.326139 -0.293926 -1.000000
v -2.326139 0.129782 -1.000000
v -2.297315 0.129782 -1.000000
v -2.297315 0.109503 -1.000000
v -0.031610 0.109503 -1.000000
v -0.031610 0.129782 -1.000000
v 0.029886 0.129782 -1.000000
v 0.029886 0.109503 -1.000000
v 2.295591 0.109503 -1.000000
v 2.295591 0.129782 -1.000000
v -2.326139 -0.129782 -1.000000
v 2.326139 -0.293926 -0.693764
v 2.326139 1.431222 -1.000000
v 2.326139 1.431222 -0.693764
v 2.295591 0.129782 -0.693764
v 2.295591 0.129782 1.000000
v 2.295591 0.109503 1.000000
v 0.029886 0.109503 1.000000
v 0.029886 0.129782 1.000000
v -0.031610 0.129782 1.000000
v -0.031610 0.109503 1.000000
v -2.297315 0.109503 1.000000
v -2.297315 0.129782 1.000000
v -2.326139 0.129782 1.000000
v -2.326139 -0.129782 1.000000
v 2.326139 -0.293926 1.000000
v 2.326139 -0.129782 -0.693764
v -2.726139 -0.129782 -1.000000
v -2.726139 0.129782 -1.000000
v 2.295591 0.530964 -1.000000
v 0.029886 0.530964 -1.000000
v -0.031610 0.530964 -1.000000
v -2.297315 0.530964 -1.000000
v -2.326139 1.431222 -1.000000
v -2.326139 -0.129782 -0.693764
v -2.326139 0.129782 -0.693764
v -2.297315 0.129782 -0.693764
v -2.297315 0.530964 -0.693764
v -0.031610 0.530964 -0.693764
v -0.031610 0.129782 -0.693764
v 0.029886 0.129782 -0.693764
v 0.029886 0.530964 -0.693764
v 2.295591 0.530964 -0.693764
v -2.326139 1.431222 -0.693764
v 2.295591 0.530964 -0.586548
v 2.295591 0.351146 -0.569295
v 2.295591 0.429066 -0.269441
v 2.295591 0.530964 -0.279218
v 2.295591 0.530964 1.000000
v -2.726139 0.129782 1.000000
v -2.726139 -0.129782 1.000000
v -2.726139 1.198278 -1.000000
v -2.326139 1.198278 -1.000000
v -2.326139 -0.293926 -1.000000
v -2.726139 -0.293926 -1.000000
v -2.726139 0.129782 -0.693764
v -2.726139 -0.129782 -0.693764
v -2.326139 -0.293926 -0.693764
v -2.297315 0.530964 1.000000
v -0.031610 0.530964 1.000000
v -0.031610 0.530964 -0.279218
v -2.279289 0.530964 -0.279218
v -2.279289 0.530964 -0.586548
v -0.031610 0.530964 -0.586548
v -0.031610 0.351146 -0.569295
v -0.031610 0.429066 -0.269441
v 0.029886 0.530964 1.000000
v 0.044954 0.530964 -0.279218
v 0.044954 0.530964 -0.586548
v -2.326139 1.198278 -0.693764
v -2.326139 1.198278 1.000000
v -2.726139 -0.293926 1.000000
v -2.326139 -0.293926 1.000000
v -2.726139 1.198278 1.000000
v -2.726139 1.198278 -0.693764
v -2.726139 -0.293926 -0.693764
v -2.279289 1.889317 -0.409544
v -0.013584 0.429066 -0.269441
v -0.013584 1.889317 -0.409544
v -2.279289 1.811397 -0.709398
v -0.013584 1.811397 -0.709398
v -0.013584 0.351146 -0.569295
v 0.044954 1.889317 -0.409544
v 0.044954 1.811397 -0.709398
v 2.310659 0.429066 -0.269441
v 2.310659 1.889317 -0.409544
v 2.310659 1.811397 -0.709398
v 2.310659 0.351146 -0.569295
vn 1.000000 0.000000 0.000000
vn 0.000000 0.000000 -1.000000
vn 0.000000 1.000000 0.000000
vn 0.000000 0.000000 1.000000
vn -1.000000 0.000000 0.000000
vn 0.000000 -1.000000 0.000000
vn 0.000000 0.095500 0.995400
vn 0.000000 -0.095500 -0.995400
vn 0.000000 -0.967900 0.251500
vn 0.000000 0.967900 -0.251500
usemtl Material.004
s off
f 1//1 2//1 3//1 4//1
f 5//1 1//1 4//1 6//1
f 2//1 1//1 7//1 8//1
f 2//2 9//2 10//2 3//2
f 10//3 11//3 4//3 3//3
f 12//4 5//4 6//4 13//4
f 1//1 5//1 14//1 7//1
f 11//3 13//3 6//3 4//3
f 15//2 9//2 2//2 8//2
f 8//1 7//1 16//1 17//1
f 9//5 18//5 11//5 10//5
f 18//5 12//5 13//5 11//5
f 12//4 19//4 14//4 5//4
f 7//1 14//1 20//1 16//1
f 15//2 8//2 17//2 21//2
f 22//2 23//2 24//2 25//2 26//2 27//2 28//2 29//2 30//2 9//2 15//2 31//2
f 32//6 21//6 17//6 16//6
f 18//1 9//1 33//1 34//1
f 12//3 18//3 35//3 36//3
f 12//4 36//4 37//4 38//4 39//4 40//4 41//4 42//4 43//4 44//4 45//4 19//4
f 14//4 19//4 46//4 20//4
f 46//6 32//6 16//6 20//6
f 47//5 15//5 21//5 32//5
f 22//2 31//2 48//2 49//2
f 9//2 30//2 50//2 51//2 27//2 26//2 52//2 53//2 23//2 22//2 54//2 33//2
f 23//2 26//2 25//2 24//2
f 27//2 30//2 29//2 28//2
f 55//6 31//6 15//6 47//6
f 56//4 57//4 58//4 59//4 60//4 61//4 62//4 63//4 35//4 18//4 34//4 64//4
f 34//3 33//3 54//3 64//3
f 63//1 65//1 66//1 67//1 68//1 69//1 36//1 35//1
f 36//4 39//4 38//4 37//4
f 61//3 60//3 40//3 39//3
f 40//4 43//4 42//4 41//4
f 57//3 56//3 44//3 43//3
f 45//4 44//4 70//4 71//4
f 45//6 55//6 47//6 19//6
f 19//5 47//5 32//5 46//5
f 22//2 49//2 72//2 73//2
f 48//2 31//2 74//2 75//2
f 76//5 49//5 48//5 77//5
f 30//2 27//2 51//2 50//2
f 26//2 23//2 53//2 52//2
f 22//5 56//5 64//5 54//5
f 31//1 55//1 78//1 74//1
f 79//5 58//5 57//5 43//5
f 58//3 79//3 80//3 81//3 82//3 83//3 84//3 59//3
f 59//1 84//1 85//1 86//1 81//1 80//1 40//1 60//1
f 87//5 62//5 61//5 39//5
f 62//3 87//3 69//3 68//3 88//3 89//3 65//3 63//3
f 36//4 69//4 87//4 39//4
f 40//4 80//4 79//4 43//4
f 44//1 56//1 90//1 91//1
f 45//4 71//4 92//4 93//4
f 70//4 44//4 91//4 94//4
f 70//5 76//5 77//5 71//5
f 55//1 45//1 93//1 78//1
f 56//1 22//1 73//1 90//1
f 49//5 76//5 95//5 72//5
f 90//3 73//3 72//3 95//3
f 77//5 48//5 75//5 96//5
f 74//6 78//6 96//6 75//6
f 97//7 82//7 81//7 86//7 98//7 99//7
f 82//5 97//5 100//5 83//5
f 101//8 102//8 85//8 84//8 83//8 100//8
f 85//9 102//9 98//9 86//9
f 91//3 90//3 95//3 94//3
f 71//5 77//5 96//5 92//5
f 78//6 93//6 92//6 96//6
f 76//5 70//5 94//5 95//5
f 101//10 100//10 97//10 99//10
f 102//1 101//1 99//1 98//1
f 88//5 103//5 104//5 89//5
f 103//7 88//7 68//7 67//7 105//7 106//7
f 107//10 104//10 103//10 106//10
f 107//8 108//8 66//8 65//8 89//8 104//8
f 66//9 108//9 105//9 67//9
f 108//1 107//1 106//1 105//1
