# Blender v2.75 (sub 0) OBJ File: 'StandingLamp.blend'
# www.blender.org
mtllib StandingLamp.mtl
o Cylinder
v 0.000000 -0.043209 -0.453890
v 0.000000 0.065065 -0.453890
v 0.266790 0.065065 -0.367205
v 0.266790 -0.043209 -0.367205
v 0.431675 -0.043209 -0.140260
v 0.431675 -0.043209 0.140260
v 0.266790 -0.043209 0.367205
v 0.000000 -0.043209 0.453890
v -0.266790 -0.043209 0.367205
v -0.431675 -0.043209 0.140260
v -0.431675 -0.043209 -0.140260
v -0.266790 -0.043209 -0.367205
v -0.266790 0.065065 -0.367205
v 0.000000 0.065065 -0.052363
v 0.030778 0.065065 -0.042362
v 0.431675 0.065065 -0.140260
v 0.431675 0.065065 0.140260
v 0.266790 0.065065 0.367205
v 0.000000 0.065065 0.453890
v -0.266790 0.065065 0.367205
v -0.431675 0.065065 0.140260
v -0.431675 0.065065 -0.140260
v -0.030778 0.065065 -0.042362
v 0.049800 0.065065 -0.016181
v -0.000000 2.662837 -0.052363
v 0.030778 2.662837 -0.042362
v 0.049800 0.065065 0.016181
v 0.030778 0.065065 0.042362
v 0.000000 0.065065 0.052363
v -0.030778 0.065065 0.042362
v -0.049800 0.065065 0.016181
v -0.049800 0.065065 -0.016181
v -0.030778 2.662837 -0.042362
v 0.049800 2.662837 -0.016181
v -0.049800 2.662837 -0.016181
v -0.049800 2.662837 0.016181
v -0.030778 2.662837 0.042362
v -0.000000 2.662837 0.052363
v 0.030778 2.662837 0.042362
v 0.049800 2.662837 0.016181
v 0.000000 2.099487 -0.345887
v 0.000000 2.813054 -0.345887
v 0.203307 2.813054 -0.279828
v 0.203307 2.099487 -0.279828
v 0.328958 2.099487 -0.106885
v 0.328958 2.099487 0.106885
v 0.203307 2.099487 0.279828
v -0.000000 2.099487 0.345887
v -0.000000 2.099487 0.297704
v 0.174986 2.099487 0.240848
v 0.283134 2.099487 0.091996
v 0.283134 2.099487 -0.091996
v 0.174986 2.099487 -0.240848
v 0.000000 2.099487 -0.297704
v -0.203307 2.099487 -0.279828
v -0.203307 2.813054 -0.279828
v 0.000000 2.813054 -0.297704
v 0.174986 2.813054 -0.240848
v 0.283134 2.813054 -0.091996
v 0.283134 2.813054 0.091996
v 0.174986 2.813054 0.240848
v -0.000000 2.813054 0.297704
v -0.000000 2.813054 0.345887
v 0.203307 2.813054 0.279828
v 0.328958 2.813054 0.106885
v 0.328958 2.813054 -0.106885
v -0.174986 2.099487 -0.240848
v -0.283134 2.099487 -0.091996
v -0.283134 2.099487 0.091996
v -0.174986 2.099487 0.240848
v -0.203307 2.099487 0.279828
v -0.328958 2.099487 0.106885
v -0.328958 2.099487 -0.106885
v -0.328958 2.813054 -0.106885
v -0.328958 2.813054 0.106885
v -0.203307 2.813054 0.279828
v -0.174986 2.813054 0.240848
v -0.283134 2.813054 0.091996
v -0.283134 2.813054 -0.091996
v -0.174986 2.813054 -0.240848
vt 0.070312 0.933594
vt 0.924747 0.791934
vt 0.934628 0.791934
vt 0.934628 0.801816
vt 0.924747 0.801816
vt 0.929688 0.801816
vt 0.932158 0.801154
vt 0.933967 0.799345
vt 0.934628 0.796875
vt 0.933967 0.794405
vt 0.932158 0.792596
vt 0.929688 0.791934
vt 0.927217 0.792596
vt 0.925408 0.794405
vt 0.924747 0.796875
vt 0.925408 0.799345
vt 0.927217 0.801154
vn 0.309000 0.000000 -0.951100
vn 0.000000 -1.000000 0.000000
vn -0.309000 0.000000 -0.951100
vn 0.000000 1.000000 -0.000000
vn 0.809000 0.000000 -0.587800
vn 1.000000 0.000000 0.000000
vn 0.809000 0.000000 0.587800
vn 0.309000 0.000000 0.951100
vn -0.309000 0.000000 0.951100
vn -0.809000 0.000000 0.587800
vn -1.000000 0.000000 0.000000
vn -0.809000 0.000000 -0.587800
usemtl Material
s off
f 1/1/1 2/1/1 3/1/1 4/1/1
f 1/1/2 4/1/2 5/1/2 6/1/2 7/1/2 8/1/2 9/1/2 10/1/2 11/1/2 12/1/2
f 12/1/3 13/1/3 2/1/3 1/1/3
f 3/1/4 2/1/4 14/1/4 15/1/4
f 4/1/5 3/1/5 16/1/5 5/1/5
f 5/1/6 16/1/6 17/1/6 6/1/6
f 6/1/7 17/1/7 18/1/7 7/1/7
f 7/1/8 18/1/8 19/1/8 8/1/8
f 8/1/9 19/1/9 20/1/9 9/1/9
f 9/1/10 20/1/10 21/1/10 10/1/10
f 10/1/11 21/1/11 22/1/11 11/1/11
f 11/1/12 22/1/12 13/1/12 12/1/12
f 2/1/4 13/1/4 23/1/4 14/1/4
f 16/1/4 3/1/4 15/1/4 24/1/4
f 15/1/1 14/1/1 25/1/1 26/1/1
f 17/1/4 16/1/4 24/1/4 27/1/4
f 18/1/4 17/1/4 27/1/4 28/1/4
f 19/1/4 18/1/4 28/1/4 29/1/4
f 20/1/4 19/1/4 29/1/4 30/1/4
f 21/1/4 20/1/4 30/1/4 31/1/4
f 22/1/4 21/1/4 31/1/4 32/1/4
f 13/1/4 22/1/4 32/1/4 23/1/4
f 14/1/3 23/1/3 33/1/3 25/1/3
f 24/1/5 15/1/5 26/1/5 34/1/5
f 26/1/4 25/1/4 33/1/4 35/1/4 36/1/4 37/1/4 38/1/4 39/1/4 40/1/4 34/1/4
f 27/1/6 24/1/6 34/1/6 40/1/6
f 28/1/7 27/1/7 40/1/7 39/1/7
f 29/1/8 28/1/8 39/1/8 38/1/8
f 30/1/9 29/1/9 38/1/9 37/1/9
f 31/1/10 30/1/10 37/1/10 36/1/10
f 32/1/11 31/1/11 36/1/11 35/1/11
f 23/1/12 32/1/12 35/1/12 33/1/12
f 41/2/1 42/3/1 43/4/1 44/5/1
f 41/6/2 44/7/2 45/8/2 46/9/2 47/10/2 48/11/2 49/12/2 50/13/2 51/14/2 52/15/2 53/16/2 54/17/2
f 55/2/3 56/3/3 42/4/3 41/5/3
f 42/6/4 57/7/4 58/8/4 59/9/4 60/10/4 61/11/4 62/12/4 63/13/4 64/14/4 65/15/4 66/16/4 43/17/4
f 44/2/5 43/3/5 66/4/5 45/5/5
f 41/6/2 54/7/2 67/8/2 68/9/2 69/10/2 70/11/2 49/12/2 48/13/2 71/14/2 72/15/2 73/16/2 55/17/2
f 45/2/6 66/3/6 65/4/6 46/5/6
f 46/2/7 65/3/7 64/4/7 47/5/7
f 47/2/8 64/3/8 63/4/8 48/5/8
f 50/2/3 49/3/3 62/4/3 61/5/3
f 51/2/12 50/3/12 61/4/12 60/5/12
f 52/2/11 51/3/11 60/4/11 59/5/11
f 53/2/10 52/3/10 59/4/10 58/5/10
f 54/2/9 53/3/9 58/4/9 57/5/9
f 73/2/12 74/3/12 56/4/12 55/5/12
f 42/6/4 56/7/4 74/8/4 75/9/4 76/10/4 63/11/4 62/12/4 77/13/4 78/14/4 79/15/4 80/16/4 57/17/4
f 67/2/8 54/3/8 57/4/8 80/5/8
f 68/2/7 67/3/7 80/4/7 79/5/7
f 69/2/6 68/3/6 79/4/6 78/5/6
f 70/2/5 69/3/5 78/4/5 77/5/5
f 49/2/1 70/3/1 77/4/1 62/5/1
f 48/2/9 63/3/9 76/4/9 71/5/9
f 71/2/10 76/3/10 75/4/10 72/5/10
f 72/2/11 75/3/11 74/4/11 73/5/11
