# Blender v2.75 (sub 0) OBJ File: 'Table.blend'
# www.blender.org
mtllib Table.mtl
o Cube.000_Cube.008
v 1.166971 1.332606 -1.240820
v 1.166972 1.332606 2.028561
v 1.166972 1.142409 2.028561
v 1.166971 1.142409 -1.240820
v -0.569681 1.332606 -1.240820
v -0.569681 1.142409 -1.240820
v -0.569681 1.332606 2.028561
v -0.569681 1.142409 2.028561
v 1.116863 1.142409 -1.221904
v 1.116863 1.142409 1.835772
v 0.946999 1.142409 -1.052041
v 1.116863 1.142409 -1.052041
v 0.946999 1.142409 -1.221904
v -0.363145 1.142409 -1.221904
v -0.533009 1.142409 -1.221904
v -0.533009 1.142409 -1.052041
v -0.443062 1.142409 2.005635
v -0.363145 1.142409 2.005635
v -0.363145 1.142409 1.991166
v 0.947000 1.142409 1.835772
v 0.947000 1.142409 2.005635
v 1.116863 1.142409 2.005635
v 1.116863 -0.148489 -1.052041
v 1.116863 -0.148489 -1.221904
v -0.363145 1.142409 -1.052041
v -0.363145 1.142409 1.835772
v -0.533009 1.142409 1.835772
v -0.533009 1.142409 2.005635
v 0.946999 -0.148489 -1.052041
v 0.946999 -0.148489 -1.221904
v -0.363145 -0.148489 -1.221904
v -0.533009 -0.148489 -1.221904
v -0.533009 -0.148489 -1.052041
v 1.116863 -0.148489 2.005635
v 1.116863 -0.148489 1.835772
v 0.947000 -0.148489 1.835772
v 0.947000 -0.148489 2.005635
v -0.363145 -0.148489 -1.052041
v -0.363145 -0.148489 2.005635
v -0.363145 -0.148489 1.835772
v -0.533009 -0.148489 2.005635
v -0.533009 -0.148489 1.835772
v -0.394006 1.332606 -1.240820
v -0.394006 1.142409 -1.240820
v -0.394006 1.332606 2.028561
v -0.394006 1.142409 2.028561
vn 1.000000 0.000000 -0.000000
vn -0.000000 0.000000 -1.000000
vn 0.000000 1.000000 -0.000000
vn 0.000000 0.000000 1.000000
vn 0.000000 -1.000000 0.000000
vn -1.000000 0.000000 0.000000
usemtl Material.001
s off
f 1//1 2//1 3//1 4//1
f 43//2 1//2 4//2 44//2
f 43//3 45//3 2//3 1//3
f 45//4 7//4 8//4 46//4
f 9//5 4//5 3//5 10//5 11//5 12//5
f 7//6 5//6 6//6 8//6
f 4//5 9//5 13//5 14//5 15//5 16//5 8//5 6//5 44//5
f 10//5 3//5 46//5 8//5 17//5 18//5 19//5 20//5 21//5 22//5
f 12//1 23//1 24//1 9//1
f 8//5 16//5 25//5 14//5 13//5 11//5 10//5 20//5 19//5 26//5 27//5 28//5 17//5
f 11//4 29//4 23//4 12//4
f 9//2 24//2 30//2 13//2
f 14//2 31//2 32//2 15//2
f 15//6 32//6 33//6 16//6
f 22//1 34//1 35//1 10//1
f 20//6 36//6 37//6 21//6
f 21//4 37//4 34//4 22//4
f 24//5 23//5 29//5 30//5
f 16//4 33//4 38//4 25//4
f 25//1 38//1 31//1 14//1
f 13//6 30//6 29//6 11//6
f 10//2 35//2 36//2 20//2
f 31//5 38//5 33//5 32//5
f 35//5 34//5 37//5 36//5
f 18//1 39//1 40//1 26//1 19//1
f 28//4 41//4 39//4 18//4 17//4
f 40//5 39//5 41//5 42//5
f 26//2 40//2 42//2 27//2
f 27//6 42//6 41//6 28//6
f 2//4 45//4 46//4 3//4
f 5//2 43//2 44//2 6//2
f 5//3 7//3 45//3 43//3
